<?xml version="1.0" encoding="UTF-8"?>
<!DOCTYPE svg PUBLIC "-//W3C//DTD SVG 1.1//EN" "http://www.w3.org/Graphics/SVG/1.1/DTD/svg11.dtd">
<svg xmlns="http://www.w3.org/2000/svg" version="1.1" width="445px" height="417px" style="shape-rendering:geometricPrecision; text-rendering:geometricPrecision; image-rendering:optimizeQuality; fill-rule:evenodd; clip-rule:evenodd" xmlns:xlink="http://www.w3.org/1999/xlink">
<g><path style="opacity:0.085" fill="#383838" d="M 109.5,15.5 C 76.6624,15.1684 43.9957,15.5017 11.5,16.5C 10.8401,17.964 10.5068,19.6307 10.5,21.5C 10.3161,24.2046 10.9827,26.5379 12.5,28.5C 13.2623,30.2624 14.5956,31.2624 16.5,31.5C 25.9913,32.33 35.658,32.83 45.5,33C 48.8511,33.0572 51.8511,33.8906 54.5,35.5C 41.4639,35.0214 28.4639,34.1881 15.5,33C 11.0171,30.5439 8.68381,26.7105 8.5,21.5C 8.93972,19.2351 9.60639,17.0684 10.5,15C 43.6692,14.1692 76.6692,14.3359 109.5,15.5 Z"/></g>
<g><path style="opacity:0.466" fill="#747474" d="M 436.5,15.5 C 436.813,19.0419 436.479,22.3752 435.5,25.5C 435.5,22.5 435.5,19.5 435.5,16.5C 401.498,16.3333 367.498,16.5 333.5,17C 332.211,18.8022 330.544,19.9688 328.5,20.5C 329.833,18.8333 331.167,17.1667 332.5,15.5C 367.167,14.1667 401.833,14.1667 436.5,15.5 Z"/></g>
<g><path style="opacity:0.996" fill="#e0e0e0" d="M 109.5,15.5 C 111.806,17.1394 113.806,19.1394 115.5,21.5C 115.738,23.4044 116.738,24.7377 118.5,25.5C 119.413,27.0861 119.413,28.5861 118.5,30C 120.887,30.5637 122.887,31.7304 124.5,33.5C 125.08,35.7488 126.413,37.4154 128.5,38.5C 129.08,40.7488 130.413,42.4154 132.5,43.5C 133.5,44.1667 134.5,44.8333 135.5,45.5C 135.5,46.1667 135.5,46.8333 135.5,47.5C 136.08,49.7488 137.413,51.4154 139.5,52.5C 140.5,53.1667 141.5,53.8333 142.5,54.5C 142.5,55.1667 142.5,55.8333 142.5,56.5C 143.08,58.7488 144.413,60.4154 146.5,61.5C 147.08,63.7488 148.413,65.4154 150.5,66.5C 151.08,68.7488 152.413,70.4154 154.5,71.5C 155.08,73.7488 156.413,75.4154 158.5,76.5C 159.08,78.7488 160.413,80.4154 162.5,81.5C 163.08,83.7488 164.413,85.4154 166.5,86.5C 167.08,88.7488 168.413,90.4154 170.5,91.5C 171.5,91.8333 172.167,92.5 172.5,93.5C 172.738,95.4044 173.738,96.7377 175.5,97.5C 176.08,99.7488 177.413,101.415 179.5,102.5C 180.833,103.5 182.167,104.5 183.5,105.5C 184.08,107.749 185.413,109.415 187.5,110.5C 188.419,113.089 190.086,115.089 192.5,116.5C 192.5,117.167 192.5,117.833 192.5,118.5C 193.419,121.089 195.086,123.089 197.5,124.5C 198.08,126.749 199.413,128.415 201.5,129.5C 202.08,131.749 203.413,133.415 205.5,134.5C 206.419,137.089 208.086,139.089 210.5,140.5C 211.08,142.749 212.413,144.415 214.5,145.5C 217.146,147.479 219.479,149.812 221.5,152.5C 222.614,153.776 223.614,153.776 224.5,152.5C 225.906,152.027 226.573,151.027 226.5,149.5C 226.833,148.5 227.5,147.833 228.5,147.5C 230.587,146.415 231.92,144.749 232.5,142.5C 234.587,141.415 235.92,139.749 236.5,137.5C 237.433,134.63 239.1,132.296 241.5,130.5C 243.262,129.738 244.262,128.404 244.5,126.5C 246.587,125.415 247.92,123.749 248.5,121.5C 250.587,120.415 251.92,118.749 252.5,116.5C 257.355,109.46 262.689,102.793 268.5,96.5C 270.587,95.4154 271.92,93.7488 272.5,91.5C 272.738,89.5956 273.738,88.2623 275.5,87.5C 277.587,86.4154 278.92,84.7488 279.5,82.5C 279.833,81.5 280.5,80.8333 281.5,80.5C 283.587,79.4154 284.92,77.7488 285.5,75.5C 287.587,74.4154 288.92,72.7488 289.5,70.5C 291.587,69.4154 292.92,67.7488 293.5,65.5C 293.738,63.5956 294.738,62.2623 296.5,61.5C 298.587,60.4154 299.92,58.7488 300.5,56.5C 300.738,54.5956 301.738,53.2623 303.5,52.5C 305.587,51.4154 306.92,49.7488 307.5,47.5C 309.587,46.4154 310.92,44.7488 311.5,42.5C 313.587,41.4154 314.92,39.7488 315.5,37.5C 315.738,35.5956 316.738,34.2623 318.5,33.5C 320.587,32.4154 321.92,30.7488 322.5,28.5C 324.122,25.5451 326.122,22.8785 328.5,20.5C 330.544,19.9688 332.211,18.8022 333.5,17C 367.498,16.5 401.498,16.3333 435.5,16.5C 435.5,19.5 435.5,22.5 435.5,25.5C 434.062,29.2736 431.395,31.6069 427.5,32.5C 424.15,32.335 420.817,32.5017 417.5,33C 416.584,33.2784 415.918,33.7784 415.5,34.5C 411.112,36.5562 408.112,39.8895 406.5,44.5C 405.778,44.9175 405.278,45.5842 405,46.5C 404.5,133.166 404.333,219.833 404.5,306.5C 403.5,306.5 402.5,306.5 401.5,306.5C 401.354,308.942 402.187,309.609 404,308.5C 404.5,324.497 404.667,340.497 404.5,356.5C 403.5,356.5 402.5,356.5 401.5,356.5C 399.316,354.415 396.649,353.415 393.5,353.5C 392.508,353.672 391.842,353.338 391.5,352.5C 390.089,350.086 388.089,348.419 385.5,347.5C 382.8,345.766 380.8,343.432 379.5,340.5C 379.727,337.562 378.727,335.229 376.5,333.5C 375.846,274.89 376.513,216.39 378.5,158C 376.546,155.882 376.213,153.716 377.5,151.5C 378.5,152.833 379.5,152.833 380.5,151.5C 381.404,150.791 381.737,149.791 381.5,148.5C 379.833,148.5 378.167,148.5 376.5,148.5C 376.179,127.758 376.512,107.091 377.5,86.5C 379.195,84.4598 381.195,82.6264 383.5,81C 381.021,80.6381 379.021,81.4714 377.5,83.5C 376.833,69.5 376.167,55.5 375.5,41.5C 375.5,40.8333 375.5,40.1667 375.5,39.5C 375.573,37.9731 374.906,36.9731 373.5,36.5C 372.078,35.075 370.411,34.075 368.5,33.5C 367.551,32.8476 366.385,32.5143 365,32.5C 362.992,32.3068 361.492,32.9735 360.5,34.5C 356.478,36.5216 353.478,39.5216 351.5,43.5C 350.094,43.9731 349.427,44.9731 349.5,46.5C 349.013,47.4734 348.513,48.4734 348,49.5C 347.5,79.8315 347.333,110.165 347.5,140.5C 347.5,141.167 347.5,141.833 347.5,142.5C 347.5,201.833 347.5,261.167 347.5,320.5C 347.334,325.511 347.501,330.511 348,335.5C 348.232,336.737 348.732,337.737 349.5,338.5C 350.469,345.086 353.136,350.753 357.5,355.5C 357.427,357.027 358.094,358.027 359.5,358.5C 359.5,359.167 359.5,359.833 359.5,360.5C 360.08,362.749 361.413,364.415 363.5,365.5C 374.13,376.649 387.13,383.316 402.5,385.5C 412.322,386.94 422.322,387.94 432.5,388.5C 433.833,389.167 434.833,390.167 435.5,391.5C 435.5,394.833 435.5,398.167 435.5,401.5C 399.124,401.82 362.79,401.487 326.5,400.5C 326.027,399.094 325.027,398.427 323.5,398.5C 320.556,396.284 318.889,393.284 318.5,389.5C 318.667,317.833 318.5,246.166 318,174.5C 316.817,173.269 315.651,173.269 314.5,174.5C 297.013,193.31 280.679,212.977 265.5,233.5C 264.094,233.973 263.427,234.973 263.5,236.5C 261.273,238.607 259.273,240.94 257.5,243.5C 256.094,243.973 255.427,244.973 255.5,246.5C 246.206,257.065 237.372,268.065 229,279.5C 228.184,280.823 227.017,281.489 225.5,281.5C 223.473,281.662 221.473,281.495 219.5,281C 217.963,279.293 216.296,277.793 214.5,276.5C 187.928,245.018 161.595,213.351 135.5,181.5C 134.574,178.905 132.907,176.905 130.5,175.5C 129.287,175.747 128.62,176.414 128.5,177.5C 127.833,177.5 127.5,177.833 127.5,178.5C 126.833,249.5 126.167,320.5 125.5,391.5C 124.463,392.93 123.796,394.597 123.5,396.5C 122.016,398.074 120.349,399.407 118.5,400.5C 83.2099,401.487 47.8765,401.82 12.5,401.5C 11.7688,396.927 12.7688,392.927 15.5,389.5C 15.8333,388.833 16.1667,388.167 16.5,387.5C 16.8417,386.662 17.5084,386.328 18.5,386.5C 26.5,386.5 34.5,386.5 42.5,386.5C 45.1522,386.59 47.4855,385.924 49.5,384.5C 55.2436,383.476 60.577,381.476 65.5,378.5C 67.0269,378.573 68.0269,377.906 68.5,376.5C 76.1667,370.833 82.8333,364.167 88.5,356.5C 90.9236,353.992 92.5903,350.992 93.5,347.5C 93.9049,344.285 94.9049,341.285 96.5,338.5C 97.9238,336.485 98.5905,334.152 98.5,331.5C 98.5,330.167 98.5,328.833 98.5,327.5C 98.8474,295.516 99.8474,263.516 101.5,231.5C 99.6692,227.759 99.0025,223.759 99.5,219.5C 103.5,218.833 103.5,218.167 99.5,217.5C 99.831,192.328 99.4977,167.328 98.5,142.5C 98.1667,142.5 97.8333,142.5 97.5,142.5C 91.2398,134.233 84.5731,126.233 77.5,118.5C 76.8333,115.833 75.1667,114.167 72.5,113.5C 70.5043,166.49 69.8376,219.823 70.5,273.5C 70.5,291.5 70.5,309.5 70.5,327.5C 70.4249,330.206 70.0916,332.873 69.5,335.5C 68.3263,336.514 67.6596,337.847 67.5,339.5C 61.6403,348.525 53.4737,354.525 43,357.5C 42.228,357.355 41.5613,357.022 41,356.5C 40.5,323.502 40.3334,290.502 40.5,257.5C 40.3333,192.499 40.5,127.499 41,62.5C 41.3826,61.944 41.8826,61.6107 42.5,61.5C 45.1667,61.1667 47.8333,60.8333 50.5,60.5C 64.9729,63.9027 76.6396,71.5693 85.5,83.5C 87.4302,87.1002 90.0969,90.1002 93.5,92.5C 94.4194,95.0892 96.086,97.0892 98.5,98.5C 100.167,99.8333 101.833,101.167 103.5,102.5C 104.757,105.427 106.757,107.761 109.5,109.5C 110.415,111.754 111.748,113.754 113.5,115.5C 114.08,117.749 115.413,119.415 117.5,120.5C 118.5,120.833 119.167,121.5 119.5,122.5C 120.419,125.089 122.086,127.089 124.5,128.5C 125.5,129.167 126.5,129.833 127.5,130.5C 129.094,133.764 131.427,136.431 134.5,138.5C 136.094,141.764 138.427,144.431 141.5,146.5C 141.733,148.062 142.4,149.395 143.5,150.5C 144.08,152.749 145.413,154.415 147.5,155.5C 148.5,155.833 149.167,156.5 149.5,157.5C 150.08,159.749 151.413,161.415 153.5,162.5C 155.167,163.833 156.833,165.167 158.5,166.5C 159.415,168.754 160.748,170.754 162.5,172.5C 163.064,174.906 163.397,177.24 163.5,179.5C 161.524,180.427 161.191,181.76 162.5,183.5C 163.855,182.812 164.855,181.812 165.5,180.5C 166.167,179.833 166.833,179.167 167.5,178.5C 168.5,178.833 169.167,179.5 169.5,180.5C 170.265,183.096 170.599,185.763 170.5,188.5C 172.199,188.473 173.533,187.806 174.5,186.5C 175.833,187.5 177.167,188.5 178.5,189.5C 179.419,192.089 181.086,194.089 183.5,195.5C 183.5,195.833 183.5,196.167 183.5,196.5C 184.08,198.749 185.413,200.415 187.5,201.5C 189.262,202.262 190.262,203.596 190.5,205.5C 189.972,206.847 189.805,208.181 190,209.5C 190.414,209.043 190.914,208.709 191.5,208.5C 192.873,210.207 194.539,211.54 196.5,212.5C 197.5,212.833 198.167,213.5 198.5,214.5C 199.419,217.089 201.086,219.089 203.5,220.5C 205.167,221.5 206.5,222.833 207.5,224.5C 207.738,226.404 208.738,227.738 210.5,228.5C 212.833,230.5 215.167,232.5 217.5,234.5C 219.966,235.634 222.633,235.801 225.5,235C 226.056,234.617 226.389,234.117 226.5,233.5C 231.5,230.5 235.5,226.5 238.5,221.5C 240.587,220.415 241.92,218.749 242.5,216.5C 245.243,214.761 247.243,212.427 248.5,209.5C 250.587,208.415 251.92,206.749 252.5,204.5C 253.419,201.911 255.086,199.911 257.5,198.5C 259.587,197.415 260.92,195.749 261.5,193.5C 263.587,192.415 264.92,190.749 265.5,188.5C 265.833,187.5 266.5,186.833 267.5,186.5C 269.587,185.415 270.92,183.749 271.5,181.5C 271.833,180.5 272.5,179.833 273.5,179.5C 275.587,178.415 276.92,176.749 277.5,174.5C 277.833,173.5 278.5,172.833 279.5,172.5C 281.914,171.089 283.581,169.089 284.5,166.5C 286.914,165.089 288.581,163.089 289.5,160.5C 291.587,159.415 292.92,157.749 293.5,155.5C 295.914,154.089 297.581,152.089 298.5,149.5C 300.117,146.216 302.45,143.549 305.5,141.5C 307.587,140.415 308.92,138.749 309.5,136.5C 309.833,135.5 310.5,134.833 311.5,134.5C 313.914,133.089 315.581,131.089 316.5,128.5C 316.5,128.167 316.5,127.833 316.5,127.5C 316.5,126.833 316.833,126.5 317.5,126.5C 318.167,126.5 318.5,126.167 318.5,125.5C 319.826,111.328 319.826,96.9945 318.5,82.5C 317.893,82.6236 317.56,82.9569 317.5,83.5C 315.413,84.5846 314.08,86.2512 313.5,88.5C 304.83,97.0056 296.663,106.006 289,115.5C 266.521,142.128 244.688,169.128 223.5,196.5C 223.167,196.5 222.833,196.5 222.5,196.5C 221.167,196.167 219.833,195.833 218.5,195.5C 214.873,190.206 210.54,185.539 205.5,181.5C 176.898,146.893 147.898,112.559 118.5,78.5C 119.183,76.8235 120.517,76.1568 122.5,76.5C 121.91,72.0805 119.91,71.4138 116.5,74.5C 115.583,73.8728 114.583,73.5394 113.5,73.5C 109.206,67.8705 104.539,62.5372 99.5,57.5C 98.1667,54.1667 95.8333,51.8333 92.5,50.5C 91.8333,50.5 91.1667,50.5 90.5,50.5C 90.1667,49.8333 89.8333,49.1667 89.5,48.5C 87.8668,46.9475 87.0334,45.2809 87,43.5C 84.9734,43.9863 82.8067,43.9863 80.5,43.5C 80.2779,41.3925 79.2779,39.7258 77.5,38.5C 78.218,37.8627 79.218,37.8627 80.5,38.5C 81.7133,38.2528 82.38,37.5862 82.5,36.5C 82.5,35.1667 82.5,33.8333 82.5,32.5C 80.0336,31.3659 77.367,31.1993 74.5,32C 74.9574,32.414 75.2907,32.914 75.5,33.5C 73.2444,34.1023 72.0777,35.1023 72,36.5C 70.7387,36.2409 69.7387,35.5742 69,34.5C 68.2613,35.5742 67.2613,36.2409 66,36.5C 64.2341,35.7665 62.4008,35.4332 60.5,35.5C 59.8333,35.5 59.1667,35.5 58.5,35.5C 56.1891,32.0027 52.8557,30.0027 48.5,29.5C 47.3044,29.8457 47.3044,30.3457 48.5,31C 37.8385,31.4998 27.1719,31.6665 16.5,31.5C 14.5956,31.2624 13.2623,30.2624 12.5,28.5C 11.7279,24.5483 11.3946,20.5483 11.5,16.5C 43.9957,15.5017 76.6624,15.1684 109.5,15.5 Z"/></g>
<g><path style="opacity:0.047" fill="#2d2d2d" d="M 109.5,15.5 C 113.767,16.7684 116.767,19.4351 118.5,23.5C 117.5,22.8333 116.5,22.1667 115.5,21.5C 113.806,19.1394 111.806,17.1394 109.5,15.5 Z"/></g>
<g><path style="opacity:0.647" fill="#979797" d="M 115.5,21.5 C 116.5,22.1667 117.5,22.8333 118.5,23.5C 118.5,24.1667 118.5,24.8333 118.5,25.5C 116.738,24.7377 115.738,23.4044 115.5,21.5 Z"/></g>
<g><path style="opacity:0.133" fill="#2e2e2e" d="M 118.5,23.5 C 120.262,24.2623 121.262,25.5956 121.5,27.5C 120.5,26.8333 119.5,26.1667 118.5,25.5C 118.5,24.8333 118.5,24.1667 118.5,23.5 Z"/></g>
<g><path style="opacity:0.4" fill="#9b9b9b" d="M 11.5,16.5 C 11.3946,20.5483 11.7279,24.5483 12.5,28.5C 10.9827,26.5379 10.3161,24.2046 10.5,21.5C 10.5068,19.6307 10.8401,17.964 11.5,16.5 Z"/></g>
<g><path style="opacity:0.957" fill="#969696" d="M 72.5,24.5 C 74.0481,24.8212 74.7148,25.8212 74.5,27.5C 71.7524,27.5983 71.0857,26.5983 72.5,24.5 Z"/></g>
<g><path style="opacity:0.133" fill="#2e2e2e" d="M 121.5,27.5 C 123.262,28.2623 124.262,29.5956 124.5,31.5C 122.738,30.7377 121.738,29.4044 121.5,27.5 Z"/></g>
<g><path style="opacity:0.651" fill="#939192" d="M 339.5,26.5 C 340.833,26.5 342.167,26.5 343.5,26.5C 343.5,27.5 343.5,28.5 343.5,29.5C 342.167,29.5 340.833,29.5 339.5,29.5C 339.5,28.5 339.5,27.5 339.5,26.5 Z"/></g>
<g><path style="opacity:0.027" fill="#2e2e2e" d="M 436.5,15.5 C 439.22,22.3268 437.553,28.1601 431.5,33C 428.607,34.1488 425.607,34.6488 422.5,34.5C 424.167,33.8333 425.833,33.1667 427.5,32.5C 431.395,31.6069 434.062,29.2736 435.5,25.5C 436.479,22.3752 436.813,19.0419 436.5,15.5 Z"/></g>
<g><path style="opacity:0.937" fill="#cbcbcb" d="M 58.5,35.5 C 57.1667,35.5 55.8333,35.5 54.5,35.5C 51.8511,33.8906 48.8511,33.0572 45.5,33C 35.658,32.83 25.9913,32.33 16.5,31.5C 27.1719,31.6665 37.8385,31.4998 48.5,31C 47.3044,30.3457 47.3044,29.8457 48.5,29.5C 52.8557,30.0027 56.1891,32.0027 58.5,35.5 Z"/></g>
<g><path style="opacity:0.963" fill="#bbbbbb" d="M 118.5,25.5 C 119.5,26.1667 120.5,26.8333 121.5,27.5C 121.738,29.4044 122.738,30.7377 124.5,31.5C 124.5,32.1667 124.5,32.8333 124.5,33.5C 122.887,31.7304 120.887,30.5637 118.5,30C 119.413,28.5861 119.413,27.0861 118.5,25.5 Z"/></g>
<g><path style="opacity:0.522" fill="#9c9c9c" d="M 322.5,28.5 C 321.92,30.7488 320.587,32.4154 318.5,33.5C 319.08,31.2512 320.413,29.5846 322.5,28.5 Z"/></g>
<g><path style="opacity:0.125" fill="#2f2f2f" d="M 124.5,31.5 C 126.587,32.5846 127.92,34.2512 128.5,36.5C 127.167,35.5 125.833,34.5 124.5,33.5C 124.5,32.8333 124.5,32.1667 124.5,31.5 Z"/></g>
<g><path style="opacity:0.29" fill="#797778" d="M 368.5,33.5 C 365.763,33.4013 363.096,33.7347 360.5,34.5C 361.492,32.9735 362.992,32.3068 365,32.5C 366.385,32.5143 367.551,32.8476 368.5,33.5 Z"/></g>
<g><path style="opacity:0.486" fill="#999898" d="M 427.5,32.5 C 425.833,33.1667 424.167,33.8333 422.5,34.5C 422.167,34.5 421.833,34.5 421.5,34.5C 419.5,34.5 417.5,34.5 415.5,34.5C 415.918,33.7784 416.584,33.2784 417.5,33C 420.817,32.5017 424.15,32.335 427.5,32.5 Z"/></g>
<g><path style="opacity:0.075" fill="#545454" d="M 82.5,32.5 C 82.5,33.8333 82.5,35.1667 82.5,36.5C 79.2298,37.5884 77.5631,36.255 77.5,32.5C 79.1667,32.5 80.8333,32.5 82.5,32.5 Z"/></g>
<g><path style="opacity:0.957" fill="#cccccc" d="M 82.5,32.5 C 80.8333,32.5 79.1667,32.5 77.5,32.5C 77.5631,36.255 79.2298,37.5884 82.5,36.5C 82.38,37.5862 81.7133,38.2528 80.5,38.5C 79.218,37.8627 78.218,37.8627 77.5,38.5C 79.2779,39.7258 80.2779,41.3925 80.5,43.5C 78.7162,43.1075 77.0495,42.4408 75.5,41.5C 75.0269,40.0937 74.0269,39.427 72.5,39.5C 68.3151,38.4603 64.3151,37.127 60.5,35.5C 62.4008,35.4332 64.2341,35.7665 66,36.5C 67.2613,36.2409 68.2613,35.5742 69,34.5C 69.7387,35.5742 70.7387,36.2409 72,36.5C 72.0777,35.1023 73.2444,34.1023 75.5,33.5C 75.2907,32.914 74.9574,32.414 74.5,32C 77.367,31.1993 80.0336,31.3659 82.5,32.5 Z"/></g>
<g><path style="opacity:0.643" fill="#a1a1a1" d="M 124.5,33.5 C 125.833,34.5 127.167,35.5 128.5,36.5C 128.5,37.1667 128.5,37.8333 128.5,38.5C 126.413,37.4154 125.08,35.7488 124.5,33.5 Z"/></g>
<g><path style="opacity:0.027" fill="#282828" d="M 368.5,33.5 C 370.411,34.075 372.078,35.075 373.5,36.5C 373.557,37.609 373.89,38.609 374.5,39.5C 374.5,44.5 374.5,49.5 374.5,54.5C 373.674,49.6835 373.174,44.6835 373,39.5C 370.017,34.4319 365.851,33.2652 360.5,36C 356.592,38.4057 353.592,41.5724 351.5,45.5C 351.5,44.8333 351.5,44.1667 351.5,43.5C 353.478,39.5216 356.478,36.5216 360.5,34.5C 363.096,33.7347 365.763,33.4013 368.5,33.5 Z"/></g>
<g><path style="opacity:0.082" fill="#353535" d="M 54.5,35.5 C 55.8333,35.5 57.1667,35.5 58.5,35.5C 59.1667,35.5 59.8333,35.5 60.5,35.5C 64.3151,37.127 68.3151,38.4603 72.5,39.5C 72.8333,40.1667 73.1667,40.8333 73.5,41.5C 67.12,39.3277 60.7867,37.3277 54.5,35.5 Z"/></g>
<g><path style="opacity:0.039" fill="#393939" d="M 415.5,34.5 C 417.5,34.5 419.5,34.5 421.5,34.5C 414.542,35.669 409.876,39.669 407.5,46.5C 407.167,46.5 406.833,46.5 406.5,46.5C 406.5,45.8333 406.5,45.1667 406.5,44.5C 408.112,39.8895 411.112,36.5562 415.5,34.5 Z"/></g>
<g><path style="opacity:0.133" fill="#303030" d="M 128.5,36.5 C 130.587,37.5846 131.92,39.2512 132.5,41.5C 131.167,40.5 129.833,39.5 128.5,38.5C 128.5,37.8333 128.5,37.1667 128.5,36.5 Z"/></g>
<g><path style="opacity:0.455" fill="#a0a0a0" d="M 373.5,36.5 C 374.906,36.9731 375.573,37.9731 375.5,39.5C 375.167,39.5 374.833,39.5 374.5,39.5C 373.89,38.609 373.557,37.609 373.5,36.5 Z"/></g>
<g><path style="opacity:0.663" fill="#a0a0a0" d="M 128.5,38.5 C 129.833,39.5 131.167,40.5 132.5,41.5C 132.5,42.1667 132.5,42.8333 132.5,43.5C 130.413,42.4154 129.08,40.7488 128.5,38.5 Z"/></g>
<g><path style="opacity:0.267" fill="#7e7e7e" d="M 72.5,39.5 C 74.0269,39.427 75.0269,40.0937 75.5,41.5C 74.8333,41.5 74.1667,41.5 73.5,41.5C 73.1667,40.8333 72.8333,40.1667 72.5,39.5 Z"/></g>
<g><path style="opacity:0.584" fill="#9e9e9e" d="M 315.5,37.5 C 314.92,39.7488 313.587,41.4154 311.5,42.5C 312.08,40.2512 313.413,38.5846 315.5,37.5 Z"/></g>
<g><path style="opacity:0.024" fill="#202020" d="M 73.5,41.5 C 74.1667,41.5 74.8333,41.5 75.5,41.5C 77.0495,42.4408 78.7162,43.1075 80.5,43.5C 80.5,43.8333 80.5,44.1667 80.5,44.5C 77.7594,44.2927 75.4261,43.2927 73.5,41.5 Z"/></g>
<g><path style="opacity:0.106" fill="#323232" d="M 132.5,41.5 C 134.262,42.2623 135.262,43.5956 135.5,45.5C 134.5,44.8333 133.5,44.1667 132.5,43.5C 132.5,42.8333 132.5,42.1667 132.5,41.5 Z"/></g>
<g><path style="opacity:0.745" fill="#8d8d8d" d="M 97.5,41.5 C 98.5,41.5 99.5,41.5 100.5,41.5C 100.5,42.5 100.5,43.5 100.5,44.5C 99.5,44.5 98.5,44.5 97.5,44.5C 97.5,43.5 97.5,42.5 97.5,41.5 Z"/></g>
<g><path style="opacity:0.929" fill="#c1c1c1" d="M 80.5,44.5 C 80.5,44.1667 80.5,43.8333 80.5,43.5C 82.8067,43.9863 84.9734,43.9863 87,43.5C 87.0334,45.2809 87.8668,46.9475 89.5,48.5C 88.8333,48.5 88.1667,48.5 87.5,48.5C 85.6644,46.412 83.3311,45.0787 80.5,44.5 Z"/></g>
<g><path style="opacity:0.024" fill="#2a2a2a" d="M 80.5,44.5 C 83.3311,45.0787 85.6644,46.412 87.5,48.5C 84.6689,47.9213 82.3356,46.588 80.5,44.5 Z"/></g>
<g><path style="opacity:0.569" fill="#9c9c9c" d="M 311.5,42.5 C 310.92,44.7488 309.587,46.4154 307.5,47.5C 308.08,45.2512 309.413,43.5846 311.5,42.5 Z"/></g>
<g><path style="opacity:0.278" fill="#797979" d="M 351.5,43.5 C 351.5,44.1667 351.5,44.8333 351.5,45.5C 350.833,45.8333 350.167,46.1667 349.5,46.5C 349.427,44.9731 350.094,43.9731 351.5,43.5 Z"/></g>
<g><path style="opacity:0.157" fill="#343434" d="M 135.5,45.5 C 137.587,46.5846 138.92,48.2512 139.5,50.5C 138.167,49.5 136.833,48.5 135.5,47.5C 135.5,46.8333 135.5,46.1667 135.5,45.5 Z"/></g>
<g><path style="opacity:0.698" fill="#a8a8a8" d="M 135.5,47.5 C 136.833,48.5 138.167,49.5 139.5,50.5C 139.5,51.1667 139.5,51.8333 139.5,52.5C 137.413,51.4154 136.08,49.7488 135.5,47.5 Z"/></g>
<g><path style="opacity:0.055" fill="#343434" d="M 87.5,48.5 C 88.1667,48.5 88.8333,48.5 89.5,48.5C 89.8333,49.1667 90.1667,49.8333 90.5,50.5C 88.9731,50.573 87.9731,49.9063 87.5,48.5 Z"/></g>
<g><path style="opacity:0.675" fill="#aaaaaa" d="M 92.5,50.5 C 95.8333,51.8333 98.1667,54.1667 99.5,57.5C 96.8333,55.5 94.5,53.1667 92.5,50.5 Z"/></g>
<g><path style="opacity:0.522" fill="#979797" d="M 307.5,47.5 C 306.92,49.7488 305.587,51.4154 303.5,52.5C 304.08,50.2512 305.413,48.5846 307.5,47.5 Z"/></g>
<g><path style="opacity:0.094" fill="#444444" d="M 351.5,45.5 C 351.005,47.4817 350.505,49.4817 350,51.5C 349.584,81.3951 349.084,111.062 348.5,140.5C 348.167,140.5 347.833,140.5 347.5,140.5C 347.333,110.165 347.5,79.8315 348,49.5C 348.513,48.4734 349.013,47.4734 349.5,46.5C 350.167,46.1667 350.833,45.8333 351.5,45.5 Z"/></g>
<g><path style="opacity:0.122" fill="#313131" d="M 139.5,50.5 C 141.262,51.2623 142.262,52.5956 142.5,54.5C 141.5,53.8333 140.5,53.1667 139.5,52.5C 139.5,51.8333 139.5,51.1667 139.5,50.5 Z"/></g>
<g><path style="opacity:0.165" fill="#373737" d="M 142.5,54.5 C 144.587,55.5846 145.92,57.2512 146.5,59.5C 145.167,58.5 143.833,57.5 142.5,56.5C 142.5,55.8333 142.5,55.1667 142.5,54.5 Z"/></g>
<g><path style="opacity:0.745" fill="#b1b1b1" d="M 142.5,56.5 C 143.833,57.5 145.167,58.5 146.5,59.5C 146.5,60.1667 146.5,60.8333 146.5,61.5C 144.413,60.4154 143.08,58.7488 142.5,56.5 Z"/></g>
<g><path style="opacity:0.537" fill="#9f9f9f" d="M 300.5,56.5 C 299.92,58.7488 298.587,60.4154 296.5,61.5C 297.08,59.2512 298.413,57.5846 300.5,56.5 Z"/></g>
<g><path style="opacity:0.663" fill="#a2a2a2" d="M 50.5,59.5 C 50.5,59.8333 50.5,60.1667 50.5,60.5C 47.8333,60.8333 45.1667,61.1667 42.5,61.5C 44.8383,59.9605 47.5049,59.2938 50.5,59.5 Z"/></g>
<g><path style="opacity:0.18" fill="#363636" d="M 146.5,59.5 C 148.587,60.5846 149.92,62.2512 150.5,64.5C 149.167,63.5 147.833,62.5 146.5,61.5C 146.5,60.8333 146.5,60.1667 146.5,59.5 Z"/></g>
<g><path style="opacity:0.722" fill="#b1b1b1" d="M 146.5,61.5 C 147.833,62.5 149.167,63.5 150.5,64.5C 150.5,65.1667 150.5,65.8333 150.5,66.5C 148.413,65.4154 147.08,63.7488 146.5,61.5 Z"/></g>
<g><path style="opacity:0.067" fill="#3d3d3d" d="M 50.5,60.5 C 50.5,60.1667 50.5,59.8333 50.5,59.5C 58.1619,60.6632 65.1619,63.4965 71.5,68C 79.7276,74.7264 87.0609,82.2264 93.5,90.5C 90.8333,88.1667 88.1667,85.8333 85.5,83.5C 76.6396,71.5693 64.9729,63.9027 50.5,60.5 Z"/></g>
<g><path style="opacity:0.137" fill="#353535" d="M 150.5,64.5 C 152.587,65.5846 153.92,67.2512 154.5,69.5C 153.167,68.5 151.833,67.5 150.5,66.5C 150.5,65.8333 150.5,65.1667 150.5,64.5 Z"/></g>
<g><path style="opacity:0.682" fill="#ababab" d="M 150.5,66.5 C 151.833,67.5 153.167,68.5 154.5,69.5C 154.5,70.1667 154.5,70.8333 154.5,71.5C 152.413,70.4154 151.08,68.7488 150.5,66.5 Z"/></g>
<g><path style="opacity:0.545" fill="#ababab" d="M 293.5,65.5 C 292.92,67.7488 291.587,69.4154 289.5,70.5C 290.08,68.2512 291.413,66.5846 293.5,65.5 Z"/></g>
<g><path style="opacity:0.031" fill="#1d1d1d" d="M 50.5,59.5 C 47.5049,59.2938 44.8383,59.9605 42.5,61.5C 41.8826,61.6107 41.3826,61.944 41,62.5C 40.5,127.499 40.3333,192.499 40.5,257.5C 40.1667,257.5 39.8333,257.5 39.5,257.5C 39.3333,192.166 39.5,126.832 40,61.5C 43.238,58.7125 46.738,58.0458 50.5,59.5 Z"/></g>
<g><path style="opacity:0.464" fill="#a1a1a1" d="M 375.5,41.5 C 376.167,55.5 376.833,69.5 377.5,83.5C 377.158,84.3382 376.492,84.6716 375.5,84.5C 375.5,70.1667 375.5,55.8333 375.5,41.5 Z"/></g>
<g><path style="opacity:0.114" fill="#333333" d="M 154.5,69.5 C 156.587,70.5846 157.92,72.2512 158.5,74.5C 157.167,73.5 155.833,72.5 154.5,71.5C 154.5,70.8333 154.5,70.1667 154.5,69.5 Z"/></g>
<g><path style="opacity:0.592" fill="#adadad" d="M 289.5,70.5 C 288.92,72.7488 287.587,74.4154 285.5,75.5C 286.08,73.2512 287.413,71.5846 289.5,70.5 Z"/></g>
<g><path style="opacity:0.51" fill="#a1a1a1" d="M 154.5,71.5 C 155.833,72.5 157.167,73.5 158.5,74.5C 158.5,75.1667 158.5,75.8333 158.5,76.5C 156.413,75.4154 155.08,73.7488 154.5,71.5 Z"/></g>
<g><path style="opacity:0.961" fill="#b0b0b0" d="M 323.5,72.5 C 324.5,72.5 325.5,72.5 326.5,72.5C 326.5,73.5 326.5,74.5 326.5,75.5C 325.5,75.5 324.5,75.5 323.5,75.5C 323.5,74.5 323.5,73.5 323.5,72.5 Z"/></g>
<g><path style="opacity:0.514" fill="#979797" d="M 118.5,78.5 C 116.5,77.1667 114.833,75.5 113.5,73.5C 114.583,73.5394 115.583,73.8728 116.5,74.5C 119.91,71.4138 121.91,72.0805 122.5,76.5C 120.517,76.1568 119.183,76.8235 118.5,78.5 Z"/></g>
<g><path style="opacity:0.69" fill="#a4a4a4" d="M 158.5,76.5 C 160.587,77.5846 161.92,79.2512 162.5,81.5C 160.413,80.4154 159.08,78.7488 158.5,76.5 Z"/></g>
<g><path style="opacity:0.596" fill="#aaaaaa" d="M 285.5,75.5 C 284.92,77.7488 283.587,79.4154 281.5,80.5C 282.08,78.2512 283.413,76.5846 285.5,75.5 Z"/></g>
<g><path style="opacity:0.031" fill="#292929" d="M 158.5,74.5 C 162.126,77.0948 164.792,80.4281 166.5,84.5C 165.167,83.5 163.833,82.5 162.5,81.5C 161.92,79.2512 160.587,77.5846 158.5,76.5C 158.5,75.8333 158.5,75.1667 158.5,74.5 Z"/></g>
<g><path style="opacity:0.698" fill="#a6a6a6" d="M 162.5,81.5 C 163.833,82.5 165.167,83.5 166.5,84.5C 166.5,85.1667 166.5,85.8333 166.5,86.5C 164.413,85.4154 163.08,83.7488 162.5,81.5 Z"/></g>
<g><path style="opacity:1" fill="#808080" d="M 377.5,86.5 C 376.833,86.5 376.167,86.5 375.5,86.5C 375.5,85.8333 375.5,85.1667 375.5,84.5C 376.492,84.6716 377.158,84.3382 377.5,83.5C 379.021,81.4714 381.021,80.6381 383.5,81C 381.195,82.6264 379.195,84.4598 377.5,86.5 Z"/></g>
<g><path style="opacity:0.737" fill="#a7a7a7" d="M 85.5,83.5 C 88.1667,85.8333 90.8333,88.1667 93.5,90.5C 93.5,91.1667 93.5,91.8333 93.5,92.5C 90.0969,90.1002 87.4302,87.1002 85.5,83.5 Z"/></g>
<g><path style="opacity:0.545" fill="#969696" d="M 279.5,82.5 C 278.92,84.7488 277.587,86.4154 275.5,87.5C 276.08,85.2512 277.413,83.5846 279.5,82.5 Z"/></g>
<g><path style="opacity:0.008" fill="#161616" d="M 317.5,126.5 C 316.833,126.5 316.5,126.833 316.5,127.5C 316.167,127.5 315.833,127.5 315.5,127.5C 316.805,114.039 316.805,100.706 315.5,87.5C 315.783,86.7109 316.283,86.0442 317,85.5C 317.5,99.1626 317.667,112.829 317.5,126.5 Z"/></g>
<g><path style="opacity:0.112" fill="#5b5b5b" d="M 317.5,83.5 C 318.496,97.3234 318.829,111.323 318.5,125.5C 318.5,126.167 318.167,126.5 317.5,126.5C 317.667,112.829 317.5,99.1626 317,85.5C 316.283,86.0442 315.783,86.7109 315.5,87.5C 315.5,88.1667 315.167,88.5 314.5,88.5C 314.167,88.5 313.833,88.5 313.5,88.5C 314.08,86.2512 315.413,84.5846 317.5,83.5 Z"/></g>
<g><path style="opacity:0.706" fill="#a7a7a7" d="M 166.5,86.5 C 168.587,87.5846 169.92,89.2512 170.5,91.5C 168.413,90.4154 167.08,88.7488 166.5,86.5 Z"/></g>
<g><path style="opacity:0.09" fill="#2f2f2f" d="M 332.5,15.5 C 331.167,17.1667 329.833,18.8333 328.5,20.5C 326.122,22.8785 324.122,25.5451 322.5,28.5C 320.413,29.5846 319.08,31.2512 318.5,33.5C 316.738,34.2623 315.738,35.5956 315.5,37.5C 313.413,38.5846 312.08,40.2512 311.5,42.5C 309.413,43.5846 308.08,45.2512 307.5,47.5C 305.413,48.5846 304.08,50.2512 303.5,52.5C 301.738,53.2623 300.738,54.5956 300.5,56.5C 298.413,57.5846 297.08,59.2512 296.5,61.5C 294.738,62.2623 293.738,63.5956 293.5,65.5C 291.413,66.5846 290.08,68.2512 289.5,70.5C 287.413,71.5846 286.08,73.2512 285.5,75.5C 283.413,76.5846 282.08,78.2512 281.5,80.5C 280.5,80.8333 279.833,81.5 279.5,82.5C 277.413,83.5846 276.08,85.2512 275.5,87.5C 273.738,88.2623 272.738,89.5956 272.5,91.5C 270.413,92.5846 269.08,94.2512 268.5,96.5C 262.689,102.793 257.355,109.46 252.5,116.5C 250.413,117.585 249.08,119.251 248.5,121.5C 246.413,122.585 245.08,124.251 244.5,126.5C 242.738,127.262 241.738,128.596 241.5,130.5C 239.1,132.296 237.433,134.63 236.5,137.5C 234.413,138.585 233.08,140.251 232.5,142.5C 230.413,143.585 229.08,145.251 228.5,147.5C 227.5,147.833 226.833,148.5 226.5,149.5C 225.094,149.973 224.427,150.973 224.5,152.5C 223.614,153.776 222.614,153.776 221.5,152.5C 219.479,149.812 217.146,147.479 214.5,145.5C 214.5,144.833 214.5,144.167 214.5,143.5C 217.464,145.962 220.297,148.629 223,151.5C 257.092,107.652 291.426,63.9851 326,20.5C 327.777,18.2101 329.944,16.5434 332.5,15.5 Z"/></g>
<g><path style="opacity:0.267" fill="#737373" d="M 66.5,86.5 C 68.9118,86.6941 69.9118,88.0274 69.5,90.5C 68.5,90.5 67.5,90.5 66.5,90.5C 66.5,89.1667 66.5,87.8333 66.5,86.5 Z"/></g>
<g><path style="opacity:0.702" fill="#8d8d8d" d="M 135.5,85.5 C 136.5,85.5 137.5,85.5 138.5,85.5C 138.778,87.3464 138.111,88.6798 136.5,89.5C 135.571,88.3112 135.238,86.9778 135.5,85.5 Z"/></g>
<g><path style="opacity:0.075" fill="#383838" d="M 374.5,39.5 C 374.833,39.5 375.167,39.5 375.5,39.5C 375.5,40.1667 375.5,40.8333 375.5,41.5C 375.5,55.8333 375.5,70.1667 375.5,84.5C 375.5,85.1667 375.5,85.8333 375.5,86.5C 375.5,110.833 375.5,135.167 375.5,159.5C 375.167,159.5 374.833,159.5 374.5,159.5C 374.346,124.668 374.346,89.6676 374.5,54.5C 374.5,49.5 374.5,44.5 374.5,39.5 Z"/></g>
<g><path style="opacity:0.035" fill="#2b2b2b" d="M 166.5,84.5 C 170.215,87.6067 173.215,91.2733 175.5,95.5C 174.5,94.8333 173.5,94.1667 172.5,93.5C 172.167,92.5 171.5,91.8333 170.5,91.5C 169.92,89.2512 168.587,87.5846 166.5,86.5C 166.5,85.8333 166.5,85.1667 166.5,84.5 Z"/></g>
<g><path style="opacity:0.133" fill="#313131" d="M 93.5,90.5 C 95.914,91.9108 97.5806,93.9108 98.5,96.5C 96.8333,95.1667 95.1667,93.8333 93.5,92.5C 93.5,91.8333 93.5,91.1667 93.5,90.5 Z"/></g>
<g><path style="opacity:0.686" fill="#a9a9a9" d="M 93.5,92.5 C 95.1667,93.8333 96.8333,95.1667 98.5,96.5C 98.5,97.1667 98.5,97.8333 98.5,98.5C 96.086,97.0892 94.4194,95.0892 93.5,92.5 Z"/></g>
<g><path style="opacity:0.58" fill="#9b9b9b" d="M 172.5,93.5 C 173.5,94.1667 174.5,94.8333 175.5,95.5C 175.5,96.1667 175.5,96.8333 175.5,97.5C 173.738,96.7377 172.738,95.4044 172.5,93.5 Z"/></g>
<g><path style="opacity:0.596" fill="#a1a1a1" d="M 272.5,91.5 C 271.92,93.7488 270.587,95.4154 268.5,96.5C 269.08,94.2512 270.413,92.5846 272.5,91.5 Z"/></g>
<g><path style="opacity:0.125" fill="#2f2f2f" d="M 175.5,95.5 C 177.587,96.5846 178.92,98.2512 179.5,100.5C 178.167,99.5 176.833,98.5 175.5,97.5C 175.5,96.8333 175.5,96.1667 175.5,95.5 Z"/></g>
<g><path style="opacity:0.141" fill="#373737" d="M 98.5,96.5 C 100.914,97.9108 102.581,99.9108 103.5,102.5C 101.833,101.167 100.167,99.8333 98.5,98.5C 98.5,97.8333 98.5,97.1667 98.5,96.5 Z"/></g>
<g><path style="opacity:0.69" fill="#bababa" d="M 406.5,44.5 C 406.5,45.1667 406.5,45.8333 406.5,46.5C 406.82,98.5297 406.487,150.53 405.5,202.5C 405.832,254.003 405.499,305.336 404.5,356.5C 404.667,340.497 404.5,324.497 404,308.5C 402.187,309.609 401.354,308.942 401.5,306.5C 402.5,306.5 403.5,306.5 404.5,306.5C 404.333,219.833 404.5,133.166 405,46.5C 405.278,45.5842 405.778,44.9175 406.5,44.5 Z"/></g>
<g><path style="opacity:0.694" fill="#a4a4a4" d="M 175.5,97.5 C 176.833,98.5 178.167,99.5 179.5,100.5C 179.5,101.167 179.5,101.833 179.5,102.5C 177.413,101.415 176.08,99.7488 175.5,97.5 Z"/></g>
<g><path style="opacity:0.024" fill="#3b3b3b" d="M 313.5,88.5 C 313.833,88.5 314.167,88.5 314.5,88.5C 284.094,124.233 254.094,160.233 224.5,196.5C 224.167,196.5 223.833,196.5 223.5,196.5C 244.688,169.128 266.521,142.128 289,115.5C 296.663,106.006 304.83,97.0056 313.5,88.5 Z"/></g>
<g><path style="opacity:0.129" fill="#323232" d="M 179.5,100.5 C 181.587,101.585 182.92,103.251 183.5,105.5C 182.167,104.5 180.833,103.5 179.5,102.5C 179.5,101.833 179.5,101.167 179.5,100.5 Z"/></g>
<g><path style="opacity:0.412" fill="#6d6d6a" d="M 87.5,101.5 C 88.8333,101.5 90.1667,101.5 91.5,101.5C 91.5,102.5 91.5,103.5 91.5,104.5C 90.1667,104.5 88.8333,104.5 87.5,104.5C 87.5,103.5 87.5,102.5 87.5,101.5 Z"/></g>
<g><path style="opacity:0.224" fill="#404040" d="M 103.5,102.5 C 106.243,104.239 108.243,106.573 109.5,109.5C 106.757,107.761 104.757,105.427 103.5,102.5 Z"/></g>
<g><path style="opacity:0.702" fill="#717171" d="M 284.5,104.5 C 287.932,104.248 288.932,105.581 287.5,108.5C 285.45,107.923 284.45,106.59 284.5,104.5 Z"/></g>
<g><path style="opacity:0.038" fill="#232323" d="M 406.5,46.5 C 406.833,46.5 407.167,46.5 407.5,46.5C 407.171,150.196 406.838,253.862 406.5,357.5C 406.832,305.664 406.499,253.997 405.5,202.5C 406.487,150.53 406.82,98.5297 406.5,46.5 Z"/></g>
<g><path style="opacity:0.157" fill="#3b3b3b" d="M 183.5,105.5 C 185.587,106.585 186.92,108.251 187.5,110.5C 185.413,109.415 184.08,107.749 183.5,105.5 Z"/></g>
<g><path style="opacity:1" fill="#a6a6a6" d="M 157.5,103.5 C 158.5,103.5 159.5,103.5 160.5,103.5C 160.5,105.167 160.5,106.833 160.5,108.5C 159.5,108.5 158.5,108.5 157.5,108.5C 157.5,106.833 157.5,105.167 157.5,103.5 Z"/></g>
<g><path style="opacity:0.208" fill="#3f3f3f" d="M 109.5,109.5 C 112.903,111.9 115.57,114.9 117.5,118.5C 116.167,117.5 114.833,116.5 113.5,115.5C 111.748,113.754 110.415,111.754 109.5,109.5 Z"/></g>
<g><path style="opacity:0.192" fill="#3a3a3a" d="M 187.5,110.5 C 189.914,111.911 191.581,113.911 192.5,116.5C 190.086,115.089 188.419,113.089 187.5,110.5 Z"/></g>
<g><path style="opacity:0.675" fill="#a8a8a8" d="M 72.5,114.5 C 72.5,114.167 72.5,113.833 72.5,113.5C 75.1667,114.167 76.8333,115.833 77.5,118.5C 75.8333,117.167 74.1667,115.833 72.5,114.5 Z"/></g>
<g><path style="opacity:0.563" fill="#b7b7b7" d="M 317.5,83.5 C 317.56,82.9569 317.893,82.6236 318.5,82.5C 319.826,96.9945 319.826,111.328 318.5,125.5C 318.829,111.323 318.496,97.3234 317.5,83.5 Z"/></g>
<g><path style="opacity:0.667" fill="#a3a3a3" d="M 113.5,115.5 C 114.833,116.5 116.167,117.5 117.5,118.5C 117.5,119.167 117.5,119.833 117.5,120.5C 115.413,119.415 114.08,117.749 113.5,115.5 Z"/></g>
<g><path style="opacity:0.161" fill="#383838" d="M 192.5,116.5 C 194.914,117.911 196.581,119.911 197.5,122.5C 195.833,121.167 194.167,119.833 192.5,118.5C 192.5,117.833 192.5,117.167 192.5,116.5 Z"/></g>
<g><path style="opacity:1" fill="#7c7c7c" d="M 336.5,116.5 C 337.5,116.5 338.5,116.5 339.5,116.5C 339.5,117.833 339.5,119.167 339.5,120.5C 338.5,120.5 337.5,120.5 336.5,120.5C 336.5,119.167 336.5,117.833 336.5,116.5 Z"/></g>
<g><path style="opacity:0.2" fill="#323232" d="M 117.5,118.5 C 120.573,120.569 122.906,123.236 124.5,126.5C 122.833,125.167 121.167,123.833 119.5,122.5C 119.167,121.5 118.5,120.833 117.5,120.5C 117.5,119.833 117.5,119.167 117.5,118.5 Z"/></g>
<g><path style="opacity:0.529" fill="#9e9e9e" d="M 252.5,116.5 C 251.92,118.749 250.587,120.415 248.5,121.5C 249.08,119.251 250.413,117.585 252.5,116.5 Z"/></g>
<g><path style="opacity:0.514" fill="#979797" d="M 64.5,120.5 C 65.5,120.5 66.5,120.5 67.5,120.5C 67.5,121.833 67.5,123.167 67.5,124.5C 66.5,124.5 65.5,124.5 64.5,124.5C 64.5,123.167 64.5,121.833 64.5,120.5 Z"/></g>
<g><path style="opacity:0.533" fill="#a3a3a3" d="M 192.5,118.5 C 194.167,119.833 195.833,121.167 197.5,122.5C 197.5,123.167 197.5,123.833 197.5,124.5C 195.086,123.089 193.419,121.089 192.5,118.5 Z"/></g>
<g><path style="opacity:0.678" fill="#a6a6a6" d="M 119.5,122.5 C 121.167,123.833 122.833,125.167 124.5,126.5C 124.5,127.167 124.5,127.833 124.5,128.5C 122.086,127.089 120.419,125.089 119.5,122.5 Z"/></g>
<g><path style="opacity:0.114" fill="#2f2f2f" d="M 197.5,122.5 C 199.587,123.585 200.92,125.251 201.5,127.5C 200.167,126.5 198.833,125.5 197.5,124.5C 197.5,123.833 197.5,123.167 197.5,122.5 Z"/></g>
<g><path style="opacity:0.69" fill="#b2b2b2" d="M 51.5,123.5 C 52.5862,123.62 53.2528,124.287 53.5,125.5C 53.1667,126.167 52.8333,126.833 52.5,127.5C 51.5713,126.311 51.238,124.978 51.5,123.5 Z"/></g>
<g><path style="opacity:0.071" fill="#252525" d="M 71.5,115.5 C 71.5,114.833 71.8333,114.5 72.5,114.5C 74.1667,115.833 75.8333,117.167 77.5,118.5C 84.5731,126.233 91.2398,134.233 97.5,142.5C 97.8324,204.336 97.4991,266.002 96.5,327.5C 96.6667,266.166 96.5,204.832 96,143.5C 88.7134,133.381 80.5468,124.048 71.5,115.5 Z"/></g>
<g><path style="opacity:0.506" fill="#6d6d6c" d="M 111.5,123.5 C 113.337,123.639 113.67,124.306 112.5,125.5C 111.702,125.043 111.369,124.376 111.5,123.5 Z"/></g>
<g><path style="opacity:0.545" fill="#989898" d="M 248.5,121.5 C 247.92,123.749 246.587,125.415 244.5,126.5C 245.08,124.251 246.413,122.585 248.5,121.5 Z"/></g>
<g><path style="opacity:0.651" fill="#a4a4a4" d="M 197.5,124.5 C 198.833,125.5 200.167,126.5 201.5,127.5C 201.5,128.167 201.5,128.833 201.5,129.5C 199.413,128.415 198.08,126.749 197.5,124.5 Z"/></g>
<g><path style="opacity:0.149" fill="#373737" d="M 124.5,126.5 C 126.262,127.262 127.262,128.596 127.5,130.5C 126.5,129.833 125.5,129.167 124.5,128.5C 124.5,127.833 124.5,127.167 124.5,126.5 Z"/></g>
<g><path style="opacity:0.655" fill="#9f9f9f" d="M 244.5,126.5 C 244.262,128.404 243.262,129.738 241.5,130.5C 241.738,128.596 242.738,127.262 244.5,126.5 Z"/></g>
<g><path style="opacity:1" fill="#9e9d9b" d="M 389.5,125.5 C 390.5,125.5 391.5,125.5 392.5,125.5C 392.5,126.5 392.5,127.5 392.5,128.5C 391.5,128.5 390.5,128.5 389.5,128.5C 389.5,127.5 389.5,126.5 389.5,125.5 Z"/></g>
<g><path style="opacity:0.106" fill="#2e2e2e" d="M 201.5,127.5 C 203.587,128.585 204.92,130.251 205.5,132.5C 204.167,131.5 202.833,130.5 201.5,129.5C 201.5,128.833 201.5,128.167 201.5,127.5 Z"/></g>
<g><path style="opacity:0.678" fill="#a1a1a1" d="M 201.5,129.5 C 202.833,130.5 204.167,131.5 205.5,132.5C 205.5,133.167 205.5,133.833 205.5,134.5C 203.413,133.415 202.08,131.749 201.5,129.5 Z"/></g>
<g><path style="opacity:0.251" fill="#3e3e3e" d="M 127.5,130.5 C 130.573,132.569 132.906,135.236 134.5,138.5C 131.427,136.431 129.094,133.764 127.5,130.5 Z"/></g>
<g><path style="opacity:0.62" fill="#ababab" d="M 316.5,128.5 C 315.581,131.089 313.914,133.089 311.5,134.5C 312.419,131.911 314.086,129.911 316.5,128.5 Z"/></g>
<g><path style="opacity:0.086" fill="#313131" d="M 90.5,50.5 C 91.1667,50.5 91.8333,50.5 92.5,50.5C 94.5,53.1667 96.8333,55.5 99.5,57.5C 104.539,62.5372 109.206,67.8705 113.5,73.5C 114.833,75.5 116.5,77.1667 118.5,78.5C 147.898,112.559 176.898,146.893 205.5,181.5C 199.504,176.337 194.004,170.67 189,164.5C 157.341,125.535 124.507,87.5354 90.5,50.5 Z"/></g>
<g><path style="opacity:0.153" fill="#313131" d="M 205.5,132.5 C 207.914,133.911 209.581,135.911 210.5,138.5C 208.833,137.167 207.167,135.833 205.5,134.5C 205.5,133.833 205.5,133.167 205.5,132.5 Z"/></g>
<g><path style="opacity:0.682" fill="#a5a5a5" d="M 205.5,134.5 C 207.167,135.833 208.833,137.167 210.5,138.5C 210.5,139.167 210.5,139.833 210.5,140.5C 208.086,139.089 206.419,137.089 205.5,134.5 Z"/></g>
<g><path style="opacity:0.357" fill="#818181" d="M 125.5,136.5 C 128.013,138.013 127.68,139.346 124.5,140.5C 124.167,140.167 123.833,139.833 123.5,139.5C 124.193,138.482 124.859,137.482 125.5,136.5 Z"/></g>
<g><path style="opacity:0.127" fill="#484848" d="M 72.5,113.5 C 72.5,113.833 72.5,114.167 72.5,114.5C 71.8333,114.5 71.5,114.833 71.5,115.5C 72.3378,168.159 72.3378,220.825 71.5,273.5C 71.1667,273.5 70.8333,273.5 70.5,273.5C 69.8376,219.823 70.5043,166.49 72.5,113.5 Z"/></g>
<g><path style="opacity:0.212" fill="#353535" d="M 134.5,138.5 C 137.573,140.569 139.906,143.236 141.5,146.5C 138.427,144.431 136.094,141.764 134.5,138.5 Z"/></g>
<g><path style="opacity:0.141" fill="#343434" d="M 210.5,138.5 C 212.587,139.585 213.92,141.251 214.5,143.5C 213.167,142.5 211.833,141.5 210.5,140.5C 210.5,139.833 210.5,139.167 210.5,138.5 Z"/></g>
<g><path style="opacity:0.58" fill="#a5a5a5" d="M 309.5,136.5 C 308.92,138.749 307.587,140.415 305.5,141.5C 306.08,139.251 307.413,137.585 309.5,136.5 Z"/></g>
<g><path style="opacity:0.58" fill="#afafaf" d="M 236.5,137.5 C 235.92,139.749 234.587,141.415 232.5,142.5C 233.08,140.251 234.413,138.585 236.5,137.5 Z"/></g>
<g><path style="opacity:0.627" fill="#7e7e7e" d="M 185.5,137.5 C 186.5,137.5 187.5,137.5 188.5,137.5C 188.512,141.446 186.512,143.113 182.5,142.5C 182.5,141.167 182.5,139.833 182.5,138.5C 183.791,138.737 184.791,138.404 185.5,137.5 Z"/></g>
<g><path style="opacity:0.706" fill="#adadad" d="M 210.5,140.5 C 211.833,141.5 213.167,142.5 214.5,143.5C 214.5,144.167 214.5,144.833 214.5,145.5C 212.413,144.415 211.08,142.749 210.5,140.5 Z"/></g>
<g><path style="opacity:1" fill="#8b8b8b" d="M 336.5,142.5 C 338.337,142.639 338.67,143.306 337.5,144.5C 336.702,144.043 336.369,143.376 336.5,142.5 Z"/></g>
<g><path style="opacity:0.008" fill="#1e1e1e" d="M 347.5,140.5 C 347.833,140.5 348.167,140.5 348.5,140.5C 349.819,152.265 349.819,163.931 348.5,175.5C 348.828,164.321 348.495,153.321 347.5,142.5C 347.5,141.833 347.5,141.167 347.5,140.5 Z"/></g>
<g><path style="opacity:0.588" fill="#adadad" d="M 232.5,142.5 C 231.92,144.749 230.587,146.415 228.5,147.5C 229.08,145.251 230.413,143.585 232.5,142.5 Z"/></g>
<g><path style="opacity:0.184" fill="#363635" d="M 141.5,146.5 C 144.243,148.239 146.243,150.573 147.5,153.5C 146.167,152.5 144.833,151.5 143.5,150.5C 142.4,149.395 141.733,148.062 141.5,146.5 Z"/></g>
<g><path style="opacity:0.518" fill="#7c7c7a" d="M 128.5,146.5 C 129.5,146.5 130.5,146.5 131.5,146.5C 131.5,147.5 131.5,148.5 131.5,149.5C 130.5,149.5 129.5,149.5 128.5,149.5C 128.5,148.5 128.5,147.5 128.5,146.5 Z"/></g>
<g><path style="opacity:0.416" fill="#646464" d="M 380.5,151.5 C 379.5,152.833 378.5,152.833 377.5,151.5C 378.5,148.833 379.5,148.833 380.5,151.5 Z"/></g>
<g><path style="opacity:0.659" fill="#a8a8a7" d="M 143.5,150.5 C 144.833,151.5 146.167,152.5 147.5,153.5C 147.5,154.167 147.5,154.833 147.5,155.5C 145.413,154.415 144.08,152.749 143.5,150.5 Z"/></g>
<g><path style="opacity:0.431" fill="#949494" d="M 226.5,149.5 C 226.573,151.027 225.906,152.027 224.5,152.5C 224.427,150.973 225.094,149.973 226.5,149.5 Z"/></g>
<g><path style="opacity:0.361" fill="#989898" d="M 112.5,154.5 C 111.432,155.434 110.099,155.768 108.5,155.5C 107.833,151.5 109.5,149.833 113.5,150.5C 113.768,152.099 113.434,153.432 112.5,154.5 Z"/></g>
<g><path style="opacity:0.616" fill="#a0a0a0" d="M 298.5,149.5 C 297.581,152.089 295.914,154.089 293.5,155.5C 294.419,152.911 296.086,150.911 298.5,149.5 Z"/></g>
<g><path style="opacity:0.078" fill="#3a3a3a" d="M 112.5,154.5 C 111.325,154.719 110.325,154.386 109.5,153.5C 109.624,152.893 109.957,152.56 110.5,152.5C 109.957,152.56 109.624,152.893 109.5,153.5C 110.325,154.386 111.325,154.719 112.5,154.5 Z"/></g>
<g><path style="opacity:0.753" fill="#7b7b7b" d="M 302.5,152.5 C 304.048,152.821 304.715,153.821 304.5,155.5C 301.752,155.598 301.086,154.598 302.5,152.5 Z"/></g>
<g><path style="opacity:0.239" fill="#7b7b7b" d="M 49.5,152.5 C 50.8333,152.5 52.1667,152.5 53.5,152.5C 53.5,153.5 53.5,154.5 53.5,155.5C 52.1667,155.5 50.8333,155.5 49.5,155.5C 49.5,154.5 49.5,153.5 49.5,152.5 Z"/></g>
<g><path style="opacity:0.184" fill="#333333" d="M 147.5,153.5 C 150.243,155.239 152.243,157.573 153.5,160.5C 152.167,159.5 150.833,158.5 149.5,157.5C 149.167,156.5 148.5,155.833 147.5,155.5C 147.5,154.833 147.5,154.167 147.5,153.5 Z"/></g>
<g><path style="opacity:0.063" fill="#2f2f2f" d="M 315.5,127.5 C 315.833,127.5 316.167,127.5 316.5,127.5C 316.5,127.833 316.5,128.167 316.5,128.5C 314.086,129.911 312.419,131.911 311.5,134.5C 310.5,134.833 309.833,135.5 309.5,136.5C 307.413,137.585 306.08,139.251 305.5,141.5C 302.45,143.549 300.117,146.216 298.5,149.5C 296.086,150.911 294.419,152.911 293.5,155.5C 291.413,156.585 290.08,158.251 289.5,160.5C 287.086,161.911 285.419,163.911 284.5,166.5C 282.086,167.911 280.419,169.911 279.5,172.5C 278.5,172.833 277.833,173.5 277.5,174.5C 275.413,175.585 274.08,177.251 273.5,179.5C 272.5,179.833 271.833,180.5 271.5,181.5C 269.413,182.585 268.08,184.251 267.5,186.5C 266.5,186.833 265.833,187.5 265.5,188.5C 263.413,189.585 262.08,191.251 261.5,193.5C 259.413,194.585 258.08,196.251 257.5,198.5C 255.086,199.911 253.419,201.911 252.5,204.5C 250.413,205.585 249.08,207.251 248.5,209.5C 245.757,211.239 243.757,213.573 242.5,216.5C 240.413,217.585 239.08,219.251 238.5,221.5C 234.167,225.167 230.167,229.167 226.5,233.5C 225.833,233.5 225.167,233.5 224.5,233.5C 247.874,206.959 270.707,179.959 293,152.5C 300.517,144.094 308.017,135.76 315.5,127.5 Z"/></g>
<g><path style="opacity:0.639" fill="#a1a1a1" d="M 149.5,157.5 C 150.833,158.5 152.167,159.5 153.5,160.5C 153.5,161.167 153.5,161.833 153.5,162.5C 151.413,161.415 150.08,159.749 149.5,157.5 Z"/></g>
<g><path style="opacity:0.522" fill="#a4a4a4" d="M 293.5,155.5 C 292.92,157.749 291.587,159.415 289.5,160.5C 290.08,158.251 291.413,156.585 293.5,155.5 Z"/></g>
<g><path style="opacity:0.176" fill="#333333" d="M 153.5,160.5 C 155.914,161.911 157.581,163.911 158.5,166.5C 156.833,165.167 155.167,163.833 153.5,162.5C 153.5,161.833 153.5,161.167 153.5,160.5 Z"/></g>
<g><path style="opacity:0.584" fill="#717171" d="M 243.5,160.5 C 244.5,160.5 245.5,160.5 246.5,160.5C 246.5,161.5 246.5,162.5 246.5,163.5C 245.5,163.5 244.5,163.5 243.5,163.5C 243.5,162.5 243.5,161.5 243.5,160.5 Z"/></g>
<g><path style="opacity:0.131" fill="#3d3d3d" d="M 374.5,159.5 C 374.833,159.5 375.167,159.5 375.5,159.5C 375.5,216.833 375.5,274.167 375.5,331.5C 375.167,331.5 374.833,331.5 374.5,331.5C 374.341,274.092 374.341,216.759 374.5,159.5 Z"/></g>
<g><path style="opacity:0.485" fill="#a8a8a8" d="M 375.5,86.5 C 376.167,86.5 376.833,86.5 377.5,86.5C 376.512,107.091 376.179,127.758 376.5,148.5C 378.167,148.5 379.833,148.5 381.5,148.5C 381.737,149.791 381.404,150.791 380.5,151.5C 379.5,148.833 378.5,148.833 377.5,151.5C 376.213,153.716 376.546,155.882 378.5,158C 376.513,216.39 375.846,274.89 376.5,333.5C 375.662,333.158 375.328,332.492 375.5,331.5C 375.5,274.167 375.5,216.833 375.5,159.5C 375.5,135.167 375.5,110.833 375.5,86.5 Z"/></g>
<g><path style="opacity:0.561" fill="#ababab" d="M 115.5,163.5 C 119.31,164.754 119.31,165.754 115.5,166.5C 115.5,165.5 115.5,164.5 115.5,163.5 Z"/></g>
<g><path style="opacity:0.616" fill="#a9a9a9" d="M 289.5,160.5 C 288.581,163.089 286.914,165.089 284.5,166.5C 285.419,163.911 287.086,161.911 289.5,160.5 Z"/></g>
<g><path style="opacity:0.255" fill="#797979" d="M 140.5,160.5 C 142.265,159.539 144.265,159.205 146.5,159.5C 146.5,161.5 146.5,163.5 146.5,165.5C 144.167,165.5 141.833,165.5 139.5,165.5C 139.216,163.585 139.549,161.919 140.5,160.5 Z"/></g>
<g><path style="opacity:0.039" fill="#262626" d="M 140.5,160.5 C 142.167,160.5 143.833,160.5 145.5,160.5C 145.5,161.833 145.5,163.167 145.5,164.5C 143.833,164.5 142.167,164.5 140.5,164.5C 140.5,163.167 140.5,161.833 140.5,160.5 Z"/></g>
<g><path style="opacity:0.337" fill="#646464" d="M 297.5,164.5 C 298.5,164.5 299.5,164.5 300.5,164.5C 300.5,165.5 300.5,166.5 300.5,167.5C 299.5,167.5 298.5,167.5 297.5,167.5C 297.5,166.5 297.5,165.5 297.5,164.5 Z"/></g>
<g><path style="opacity:0.169" fill="#313131" d="M 158.5,166.5 C 161.243,168.239 163.243,170.573 164.5,173.5C 163.833,173.167 163.167,172.833 162.5,172.5C 160.748,170.754 159.415,168.754 158.5,166.5 Z"/></g>
<g><path style="opacity:1" fill="#a8a8a8" d="M 230.5,167.5 C 232.225,167.843 232.725,168.843 232,170.5C 230.989,171.337 229.822,171.67 228.5,171.5C 228.527,169.801 229.194,168.467 230.5,167.5 Z"/></g>
<g><path style="opacity:0.608" fill="#a7a7a7" d="M 284.5,166.5 C 283.581,169.089 281.914,171.089 279.5,172.5C 280.419,169.911 282.086,167.911 284.5,166.5 Z"/></g>
<g><path style="opacity:0.149" fill="#6e6e6e" d="M 51.5,168.5 C 52.5,168.5 53.5,168.5 54.5,168.5C 54.5,169.5 54.5,170.5 54.5,171.5C 53.5,171.5 52.5,171.5 51.5,171.5C 51.5,170.5 51.5,169.5 51.5,168.5 Z"/></g>
<g><path style="opacity:0.18" fill="#333333" d="M 164.5,173.5 C 167.903,175.9 170.57,178.9 172.5,182.5C 171.5,181.833 170.5,181.167 169.5,180.5C 169.167,179.5 168.5,178.833 167.5,178.5C 166.075,177.078 165.075,175.411 164.5,173.5 Z"/></g>
<g><path style="opacity:0.906" fill="#b1b1b1" d="M 135.5,181.5 C 133.637,179.295 131.303,177.961 128.5,177.5C 128.62,176.414 129.287,175.747 130.5,175.5C 132.907,176.905 134.574,178.905 135.5,181.5 Z"/></g>
<g><path style="opacity:0.902" fill="#bbbbbb" d="M 162.5,172.5 C 163.167,172.833 163.833,173.167 164.5,173.5C 165.075,175.411 166.075,177.078 167.5,178.5C 166.833,179.167 166.167,179.833 165.5,180.5C 165.158,179.662 164.492,179.328 163.5,179.5C 163.397,177.24 163.064,174.906 162.5,172.5 Z"/></g>
<g><path style="opacity:0.565" fill="#9e9e9e" d="M 277.5,174.5 C 276.92,176.749 275.587,178.415 273.5,179.5C 274.08,177.251 275.413,175.585 277.5,174.5 Z"/></g>
<g><path style="opacity:0.314" fill="#828282" d="M 51.5,176.5 C 53.0481,176.821 53.7148,177.821 53.5,179.5C 50.7524,179.598 50.0857,178.598 51.5,176.5 Z"/></g>
<g><path style="opacity:0.294" fill="#6c6c6c" d="M 163.5,179.5 C 164.492,179.328 165.158,179.662 165.5,180.5C 164.855,181.812 163.855,182.812 162.5,183.5C 161.191,181.76 161.524,180.427 163.5,179.5 Z"/></g>
<g><path style="opacity:0.004" fill="#2c2c2c" d="M 205.5,181.5 C 210.54,185.539 214.873,190.206 218.5,195.5C 219.538,197.519 220.872,197.853 222.5,196.5C 222.833,196.5 223.167,196.5 223.5,196.5C 223.833,196.5 224.167,196.5 224.5,196.5C 222.989,198.441 220.989,198.941 218.5,198C 213.547,192.893 209.214,187.393 205.5,181.5 Z"/></g>
<g><path style="opacity:0.145" fill="#3c3c3c" d="M 172.5,182.5 C 175.243,184.239 177.243,186.573 178.5,189.5C 177.167,188.5 175.833,187.5 174.5,186.5C 173.4,185.395 172.733,184.062 172.5,182.5 Z"/></g>
<g><path style="opacity:0.565" fill="#a4a4a4" d="M 271.5,181.5 C 270.92,183.749 269.587,185.415 267.5,186.5C 268.08,184.251 269.413,182.585 271.5,181.5 Z"/></g>
<g><path style="opacity:0.135" fill="#595959" d="M 287.5,183.5 C 288.5,183.5 289.5,183.5 290.5,183.5C 290.5,185.167 290.5,186.833 290.5,188.5C 289.5,188.5 288.5,188.5 287.5,188.5C 287.5,186.833 287.5,185.167 287.5,183.5 Z"/></g>
<g><path style="opacity:0.394" fill="#9a9a9a" d="M 169.5,180.5 C 170.5,181.167 171.5,181.833 172.5,182.5C 172.733,184.062 173.4,185.395 174.5,186.5C 173.533,187.806 172.199,188.473 170.5,188.5C 170.599,185.763 170.265,183.096 169.5,180.5 Z"/></g>
<g><path style="opacity:0.663" fill="#b0b0b0" d="M 110.5,186.5 C 111.5,186.5 112.5,186.5 113.5,186.5C 113.5,187.5 113.5,188.5 113.5,189.5C 112.5,189.5 111.5,189.5 110.5,189.5C 110.5,188.5 110.5,187.5 110.5,186.5 Z"/></g>
<g><path style="opacity:0.043" fill="#444444" d="M 318.5,389.5 C 318.167,389.5 317.833,389.5 317.5,389.5C 316.606,318.289 316.106,246.956 316,175.5C 298.55,195.105 281.717,215.105 265.5,235.5C 265.5,234.833 265.5,234.167 265.5,233.5C 280.679,212.977 297.013,193.31 314.5,174.5C 315.651,173.269 316.817,173.269 318,174.5C 318.5,246.166 318.667,317.833 318.5,389.5 Z"/></g>
<g><path style="opacity:0.251" fill="#535353" d="M 178.5,189.5 C 180.5,190.833 182.167,192.5 183.5,194.5C 183.5,194.833 183.5,195.167 183.5,195.5C 181.086,194.089 179.419,192.089 178.5,189.5 Z"/></g>
<g><path style="opacity:0.561" fill="#a9a9a9" d="M 265.5,188.5 C 264.92,190.749 263.587,192.415 261.5,193.5C 262.08,191.251 263.413,189.585 265.5,188.5 Z"/></g>
<g><path style="opacity:0.082" fill="#2d2d2d" d="M 183.5,194.5 C 185.587,195.585 186.92,197.251 187.5,199.5C 186.167,198.5 184.833,197.5 183.5,196.5C 183.5,196.167 183.5,195.833 183.5,195.5C 183.5,195.167 183.5,194.833 183.5,194.5 Z"/></g>
<g><path style="opacity:0.533" fill="#9c9c9c" d="M 218.5,195.5 C 219.833,195.833 221.167,196.167 222.5,196.5C 220.872,197.853 219.538,197.519 218.5,195.5 Z"/></g>
<g><path style="opacity:0.165" fill="#555555" d="M 333.5,193.5 C 334.675,193.281 335.675,193.614 336.5,194.5C 336.376,195.107 336.043,195.44 335.5,195.5C 332.678,198.021 332.011,197.354 333.5,193.5 Z"/></g>
<g><path style="opacity:0.561" fill="#b2b2b2" d="M 261.5,193.5 C 260.92,195.749 259.587,197.415 257.5,198.5C 258.08,196.251 259.413,194.585 261.5,193.5 Z"/></g>
<g><path style="opacity:0.608" fill="#9f9f9f" d="M 183.5,196.5 C 184.833,197.5 186.167,198.5 187.5,199.5C 187.5,200.167 187.5,200.833 187.5,201.5C 185.413,200.415 184.08,198.749 183.5,196.5 Z"/></g>
<g><path style="opacity:0.314" fill="#989898" d="M 333.5,193.5 C 332.011,197.354 332.678,198.021 335.5,195.5C 337.116,198.984 336.116,199.984 332.5,198.5C 331.106,196.418 331.439,194.751 333.5,193.5 Z"/></g>
<g><path style="opacity:0.051" fill="#292929" d="M 128.5,177.5 C 131.303,177.961 133.637,179.295 135.5,181.5C 161.595,213.351 187.928,245.018 214.5,276.5C 214.5,277.167 214.5,277.833 214.5,278.5C 190.82,250.981 167.654,222.981 145,194.5C 140.351,188.684 135.184,183.351 129.5,178.5C 128.833,248.332 128.167,317.999 127.5,387.5C 127.5,317.833 127.5,248.167 127.5,178.5C 127.5,177.833 127.833,177.5 128.5,177.5 Z"/></g>
<g><path style="opacity:0.369" fill="#808080" d="M 59.5,203.5 C 60.5,203.5 61.5,203.5 62.5,203.5C 62.5,204.5 62.5,205.5 62.5,206.5C 61.5,206.5 60.5,206.5 59.5,206.5C 59.5,205.5 59.5,204.5 59.5,203.5 Z"/></g>
<g><path style="opacity:0.043" fill="#2c2c2c" d="M 187.5,199.5 C 190.871,202.871 193.871,206.537 196.5,210.5C 194.5,208.833 192.5,207.167 190.5,205.5C 190.262,203.596 189.262,202.262 187.5,201.5C 187.5,200.833 187.5,200.167 187.5,199.5 Z"/></g>
<g><path style="opacity:0.196" fill="#6e6e6e" d="M 112.5,203.5 C 114.048,203.821 114.715,204.821 114.5,206.5C 111.752,206.598 111.086,205.598 112.5,203.5 Z"/></g>
<g><path style="opacity:0.361" fill="#686868" d="M 48.5,204.5 C 49.5,204.5 50.5,204.5 51.5,204.5C 52.2436,207.95 50.9103,209.616 47.5,209.5C 47.366,207.708 47.6993,206.042 48.5,204.5 Z"/></g>
<g><path style="opacity:0.97" fill="#bebebe" d="M 190.5,205.5 C 192.5,207.167 194.5,208.833 196.5,210.5C 196.5,211.167 196.5,211.833 196.5,212.5C 194.539,211.54 192.873,210.207 191.5,208.5C 190.914,208.709 190.414,209.043 190,209.5C 189.805,208.181 189.972,206.847 190.5,205.5 Z"/></g>
<g><path style="opacity:0.596" fill="#a9a9a9" d="M 252.5,204.5 C 251.92,206.749 250.587,208.415 248.5,209.5C 249.08,207.251 250.413,205.585 252.5,204.5 Z"/></g>
<g><path style="opacity:0.169" fill="#323232" d="M 196.5,210.5 C 199.573,212.569 201.906,215.236 203.5,218.5C 201.833,217.167 200.167,215.833 198.5,214.5C 198.167,213.5 197.5,212.833 196.5,212.5C 196.5,211.833 196.5,211.167 196.5,210.5 Z"/></g>
<g><path style="opacity:0.639" fill="#a1a1a1" d="M 248.5,209.5 C 247.243,212.427 245.243,214.761 242.5,216.5C 243.757,213.573 245.757,211.239 248.5,209.5 Z"/></g>
<g><path style="opacity:0.675" fill="#a1a1a1" d="M 198.5,214.5 C 200.167,215.833 201.833,217.167 203.5,218.5C 203.5,219.167 203.5,219.833 203.5,220.5C 201.086,219.089 199.419,217.089 198.5,214.5 Z"/></g>
<g><path style="opacity:0.184" fill="#2f2f2f" d="M 203.5,218.5 C 206.573,220.569 208.906,223.236 210.5,226.5C 209.5,225.833 208.5,225.167 207.5,224.5C 206.5,222.833 205.167,221.5 203.5,220.5C 203.5,219.833 203.5,219.167 203.5,218.5 Z"/></g>
<g><path style="opacity:0.573" fill="#9e9e9e" d="M 242.5,216.5 C 241.92,218.749 240.587,220.415 238.5,221.5C 239.08,219.251 240.413,217.585 242.5,216.5 Z"/></g>
<g><path style="opacity:0.29" fill="#7e7c7d" d="M 393.5,219.5 C 394.5,219.5 395.5,219.5 396.5,219.5C 396.435,222.998 395.101,223.498 392.5,221C 393.056,220.617 393.389,220.117 393.5,219.5 Z"/></g>
<g><path style="opacity:0.592" fill="#9c9c9c" d="M 207.5,224.5 C 208.5,225.167 209.5,225.833 210.5,226.5C 210.5,227.167 210.5,227.833 210.5,228.5C 208.738,227.738 207.738,226.404 207.5,224.5 Z"/></g>
<g><path style="opacity:0.176" fill="#303030" d="M 210.5,226.5 C 212.63,228.127 214.63,229.96 216.5,232C 219.014,233.252 221.68,233.752 224.5,233.5C 222.393,234.468 220.059,234.802 217.5,234.5C 215.167,232.5 212.833,230.5 210.5,228.5C 210.5,227.833 210.5,227.167 210.5,226.5 Z"/></g>
<g><path style="opacity:0.486" fill="#929292" d="M 238.5,221.5 C 235.5,226.5 231.5,230.5 226.5,233.5C 230.167,229.167 234.167,225.167 238.5,221.5 Z"/></g>
<g><path style="opacity:0.624" fill="#c1c1c1" d="M 98.5,142.5 C 99.4977,167.328 99.831,192.328 99.5,217.5C 103.5,218.167 103.5,218.833 99.5,219.5C 99.0025,223.759 99.6692,227.759 101.5,231.5C 99.8474,263.516 98.8474,295.516 98.5,327.5C 98.5,265.833 98.5,204.167 98.5,142.5 Z"/></g>
<g><path style="opacity:0.553" fill="#838383" d="M 224.5,233.5 C 225.167,233.5 225.833,233.5 226.5,233.5C 226.389,234.117 226.056,234.617 225.5,235C 222.633,235.801 219.966,235.634 217.5,234.5C 220.059,234.802 222.393,234.468 224.5,233.5 Z"/></g>
<g><path style="opacity:0.173" fill="#797979" d="M 265.5,233.5 C 265.5,234.167 265.5,234.833 265.5,235.5C 264.833,235.833 264.167,236.167 263.5,236.5C 263.427,234.973 264.094,233.973 265.5,233.5 Z"/></g>
<g><path style="opacity:1" fill="#b7b7b7" d="M 190.5,234.5 C 192.024,235.174 193.358,236.174 194.5,237.5C 195.386,238.325 195.719,239.325 195.5,240.5C 191.686,240.349 190.019,238.349 190.5,234.5 Z"/></g>
<g><path style="opacity:0.149" fill="#4e4e4e" d="M 46.5,239.5 C 47.8333,239.5 49.1667,239.5 50.5,239.5C 50.5,240.833 50.5,242.167 50.5,243.5C 49.1667,243.5 47.8333,243.5 46.5,243.5C 46.5,242.167 46.5,240.833 46.5,239.5 Z"/></g>
<g><path style="opacity:0.059" fill="#3c3c3c" d="M 265.5,235.5 C 263.312,239.207 260.645,242.54 257.5,245.5C 257.5,244.833 257.5,244.167 257.5,243.5C 259.273,240.94 261.273,238.607 263.5,236.5C 264.167,236.167 264.833,235.833 265.5,235.5 Z"/></g>
<g><path style="opacity:0.18" fill="#7e7e7e" d="M 257.5,243.5 C 257.5,244.167 257.5,244.833 257.5,245.5C 256.833,245.833 256.167,246.167 255.5,246.5C 255.427,244.973 256.094,243.973 257.5,243.5 Z"/></g>
<g><path style="opacity:1" fill="#bbbbbb" d="M 116.5,249.5 C 118.635,249.147 119.968,249.98 120.5,252C 119.381,253.876 117.714,254.709 115.5,254.5C 115.366,252.708 115.699,251.042 116.5,249.5 Z"/></g>
<g><path style="opacity:0.039" fill="#3a3a3a" d="M 257.5,245.5 C 248.451,258.061 238.785,270.228 228.5,282C 225.44,283.663 222.44,283.83 219.5,282.5C 221.735,282.795 223.735,282.461 225.5,281.5C 227.017,281.489 228.184,280.823 229,279.5C 237.372,268.065 246.206,257.065 255.5,246.5C 256.167,246.167 256.833,245.833 257.5,245.5 Z"/></g>
<g><path style="opacity:0.149" fill="#5b5b5b" d="M 47.5,260.5 C 48.5,260.5 49.5,260.5 50.5,260.5C 50.5,262.167 50.5,263.833 50.5,265.5C 49.5,265.5 48.5,265.5 47.5,265.5C 47.5,263.833 47.5,262.167 47.5,260.5 Z"/></g>
<g><path style="opacity:0.056" fill="#2b2b2b" d="M 39.5,257.5 C 39.8333,257.5 40.1667,257.5 40.5,257.5C 40.3334,290.502 40.5,323.502 41,356.5C 41.5613,357.022 42.228,357.355 43,357.5C 53.4737,354.525 61.6403,348.525 67.5,339.5C 62.405,351.951 53.2383,357.951 40,357.5C 39.2826,353.863 38.7826,350.196 38.5,346.5C 39.4602,316.846 39.7935,287.179 39.5,257.5 Z"/></g>
<g><path style="opacity:1" fill="#999999" d="M 223.5,266.5 C 226.5,266.167 227.833,267.5 227.5,270.5C 226.167,270.5 224.833,270.5 223.5,270.5C 223.5,269.167 223.5,267.833 223.5,266.5 Z"/></g>
<g><path style="opacity:0.079" fill="#434343" d="M 347.5,142.5 C 348.495,153.321 348.828,164.321 348.5,175.5C 349.11,224.107 349.11,272.441 348.5,320.5C 348.167,320.5 347.833,320.5 347.5,320.5C 347.5,261.167 347.5,201.833 347.5,142.5 Z"/></g>
<g><path style="opacity:0.222" fill="#656565" d="M 97.5,142.5 C 97.8333,142.5 98.1667,142.5 98.5,142.5C 98.5,204.167 98.5,265.833 98.5,327.5C 98.5,328.833 98.5,330.167 98.5,331.5C 97.8333,332.5 97.1667,333.5 96.5,334.5C 96.5,332.5 96.5,330.5 96.5,328.5C 96.5,328.167 96.5,327.833 96.5,327.5C 97.4991,266.002 97.8324,204.336 97.5,142.5 Z"/></g>
<g><path style="opacity:0.004" fill="#1a1a1a" d="M 214.5,278.5 C 215.833,279.167 216.833,280.167 217.5,281.5C 215.5,281.5 214.5,280.5 214.5,278.5 Z"/></g>
<g><path style="opacity:0.286" fill="#646464" d="M 214.5,276.5 C 216.296,277.793 217.963,279.293 219.5,281C 221.473,281.495 223.473,281.662 225.5,281.5C 223.735,282.461 221.735,282.795 219.5,282.5C 218.508,282.672 217.842,282.338 217.5,281.5C 216.833,280.167 215.833,279.167 214.5,278.5C 214.5,277.833 214.5,277.167 214.5,276.5 Z"/></g>
<g><path style="opacity:0.253" fill="#737373" d="M 391.5,296.5 C 390.791,297.404 389.791,297.737 388.5,297.5C 388.5,295.833 388.5,294.167 388.5,292.5C 390.167,292.5 391.833,292.5 393.5,292.5C 393.771,294.38 393.104,295.713 391.5,296.5 Z"/></g>
<g><path style="opacity:0.008" fill="#2f2f2f" d="M 391.5,296.5 C 389.535,296.052 389.202,295.052 390.5,293.5C 391.386,294.325 391.719,295.325 391.5,296.5 Z"/></g>
<g><path style="opacity:0.148" fill="#464646" d="M 70.5,273.5 C 70.8333,273.5 71.1667,273.5 71.5,273.5C 72.8245,291.598 72.8245,309.598 71.5,327.5C 71.1667,327.5 70.8333,327.5 70.5,327.5C 70.5,309.5 70.5,291.5 70.5,273.5 Z"/></g>
<g><path style="opacity:0.259" fill="#828282" d="M 393.5,313.5 C 394.586,313.62 395.253,314.287 395.5,315.5C 395.167,316.167 394.833,316.833 394.5,317.5C 393.571,316.311 393.238,314.978 393.5,313.5 Z"/></g>
<g><path style="opacity:1" fill="#909090" d="M 54.5,315.5 C 56.4646,315.948 56.7979,316.948 55.5,318.5C 54.6143,317.675 54.281,316.675 54.5,315.5 Z"/></g>
<g><path style="opacity:0.035" fill="#2b2b2b" d="M 70.5,327.5 C 70.8333,327.5 71.1667,327.5 71.5,327.5C 71.8893,330.553 71.2227,333.22 69.5,335.5C 70.0916,332.873 70.4249,330.206 70.5,327.5 Z"/></g>
<g><path style="opacity:0.89" fill="#a5a5a5" d="M 376.5,333.5 C 378.727,335.229 379.727,337.562 379.5,340.5C 377.707,338.574 376.707,336.241 376.5,333.5 Z"/></g>
<g><path style="opacity:0.698" fill="#b2b2b2" d="M 98.5,331.5 C 98.5905,334.152 97.9238,336.485 96.5,338.5C 96.5,337.167 96.5,335.833 96.5,334.5C 97.1667,333.5 97.8333,332.5 98.5,331.5 Z"/></g>
<g><path style="opacity:0.318" fill="#515151" d="M 347.5,320.5 C 347.833,320.5 348.167,320.5 348.5,320.5C 349.445,325.405 349.779,330.405 349.5,335.5C 349.5,336.5 349.5,337.5 349.5,338.5C 348.732,337.737 348.232,336.737 348,335.5C 347.501,330.511 347.334,325.511 347.5,320.5 Z"/></g>
<g><path style="opacity:0.024" fill="#323232" d="M 69.5,335.5 C 69.7709,337.38 69.1042,338.713 67.5,339.5C 67.6596,337.847 68.3263,336.514 69.5,335.5 Z"/></g>
<g><path style="opacity:0.239" fill="#393939" d="M 96.5,328.5 C 96.5,330.5 96.5,332.5 96.5,334.5C 96.5,335.833 96.5,337.167 96.5,338.5C 94.9049,341.285 93.9049,344.285 93.5,347.5C 92.8333,347.5 92.1667,347.5 91.5,347.5C 93.6628,341.176 95.3295,334.843 96.5,328.5 Z"/></g>
<g><path style="opacity:0.035" fill="#232323" d="M 374.5,331.5 C 374.833,331.5 375.167,331.5 375.5,331.5C 375.328,332.492 375.662,333.158 376.5,333.5C 376.707,336.241 377.707,338.574 379.5,340.5C 380.8,343.432 382.8,345.766 385.5,347.5C 386.911,349.914 388.911,351.581 391.5,352.5C 391.842,353.338 392.508,353.672 393.5,353.5C 395.684,355.585 398.351,356.585 401.5,356.5C 401.5,356.833 401.5,357.167 401.5,357.5C 396.808,357.159 392.474,355.659 388.5,353C 381.543,347.232 376.877,340.065 374.5,331.5 Z"/></g>
<g><path style="opacity:0.388" fill="#808080" d="M 405.5,202.5 C 406.499,253.997 406.832,305.664 406.5,357.5C 404.833,358.833 403.167,358.833 401.5,357.5C 401.5,357.167 401.5,356.833 401.5,356.5C 402.5,356.5 403.5,356.5 404.5,356.5C 405.499,305.336 405.832,254.003 405.5,202.5 Z"/></g>
<g><path style="opacity:0.031" fill="#373737" d="M 349.5,335.5 C 351.566,342.314 354.233,348.981 357.5,355.5C 353.136,350.753 350.469,345.086 349.5,338.5C 349.5,337.5 349.5,336.5 349.5,335.5 Z"/></g>
<g><path style="opacity:0.624" fill="#8e8e8e" d="M 91.5,347.5 C 92.1667,347.5 92.8333,347.5 93.5,347.5C 92.5903,350.992 90.9236,353.992 88.5,356.5C 89.038,354.883 89.3713,353.216 89.5,351.5C 89.6596,349.847 90.3263,348.514 91.5,347.5 Z"/></g>
<g><path style="opacity:0.388" fill="#959595" d="M 385.5,347.5 C 388.089,348.419 390.089,350.086 391.5,352.5C 388.911,351.581 386.911,349.914 385.5,347.5 Z"/></g>
<g><path style="opacity:0.827" fill="#adadad" d="M 393.5,353.5 C 396.649,353.415 399.316,354.415 401.5,356.5C 398.351,356.585 395.684,355.585 393.5,353.5 Z"/></g>
<g><path style="opacity:0.059" fill="#2b2b2b" d="M 357.5,355.5 C 358.906,355.973 359.573,356.973 359.5,358.5C 358.094,358.027 357.427,357.027 357.5,355.5 Z"/></g>
<g><path style="opacity:0.125" fill="#303030" d="M 359.5,358.5 C 361.587,359.585 362.92,361.251 363.5,363.5C 362.167,362.5 360.833,361.5 359.5,360.5C 359.5,359.833 359.5,359.167 359.5,358.5 Z"/></g>
<g><path style="opacity:0.659" fill="#a0a0a0" d="M 359.5,360.5 C 360.833,361.5 362.167,362.5 363.5,363.5C 363.5,364.167 363.5,364.833 363.5,365.5C 361.413,364.415 360.08,362.749 359.5,360.5 Z"/></g>
<g><path style="opacity:1" fill="#909090" d="M 97.5,364.5 C 99.9118,364.694 100.912,366.027 100.5,368.5C 99.5,368.5 98.5,368.5 97.5,368.5C 97.5,367.167 97.5,365.833 97.5,364.5 Z"/></g>
<g><path style="opacity:1" fill="#8a8a8a" d="M 335.5,365.5 C 336.5,365.5 337.5,365.5 338.5,365.5C 338.5,366.5 338.5,367.5 338.5,368.5C 337.5,368.5 336.5,368.5 335.5,368.5C 335.5,367.5 335.5,366.5 335.5,365.5 Z"/></g>
<g><path style="opacity:0.114" fill="#303030" d="M 89.5,351.5 C 89.3713,353.216 89.038,354.883 88.5,356.5C 82.8333,364.167 76.1667,370.833 68.5,376.5C 67.8333,376.5 67.1667,376.5 66.5,376.5C 75.9232,369.745 83.5899,361.412 89.5,351.5 Z"/></g>
<g><path style="opacity:1" fill="#bdbdbd" d="M 113.5,367.5 C 115.484,367.484 116.484,368.484 116.5,370.5C 116.224,372.33 115.557,373.997 114.5,375.5C 113.52,372.914 113.187,370.247 113.5,367.5 Z"/></g>
<g><path style="opacity:0.792" fill="#a3a3a3" d="M 350.5,368.5 C 353.5,368.167 354.833,369.5 354.5,372.5C 351.5,372.833 350.167,371.5 350.5,368.5 Z"/></g>
<g><path style="opacity:0.063" fill="#373737" d="M 363.5,363.5 C 380.84,380.169 401.507,387.503 425.5,385.5C 417.833,385.5 410.167,385.5 402.5,385.5C 387.13,383.316 374.13,376.649 363.5,365.5C 363.5,364.833 363.5,364.167 363.5,363.5 Z"/></g>
<g><path style="opacity:0.561" fill="#8f8f8f" d="M 66.5,376.5 C 67.1667,376.5 67.8333,376.5 68.5,376.5C 68.0269,377.906 67.0269,378.573 65.5,378.5C 65.8333,377.833 66.1667,377.167 66.5,376.5 Z"/></g>
<g><path style="opacity:1" fill="#b3b3b3" d="M 330.5,382.5 C 329.596,381.791 329.263,380.791 329.5,379.5C 330.833,379.5 332.167,379.5 333.5,379.5C 333.785,381.288 333.452,382.955 332.5,384.5C 331.478,384.145 330.811,383.478 330.5,382.5 Z"/></g>
<g><path style="opacity:1" fill="#6a6a6a" d="M 330.5,382.5 C 330.639,380.663 331.306,380.33 332.5,381.5C 332.043,382.298 331.376,382.631 330.5,382.5 Z"/></g>
<g><path style="opacity:0.18" fill="#3e3e3e" d="M 66.5,376.5 C 66.1667,377.167 65.8333,377.833 65.5,378.5C 60.577,381.476 55.2436,383.476 49.5,384.5C 48.1667,384.5 46.8333,384.5 45.5,384.5C 52.7095,382.648 59.7095,379.982 66.5,376.5 Z"/></g>
<g><path style="opacity:0.046" fill="#282828" d="M 45.5,384.5 C 44.5,385.167 43.5,385.833 42.5,386.5C 34.5,386.5 26.5,386.5 18.5,386.5C 27.3296,385.558 36.3296,384.892 45.5,384.5 Z"/></g>
<g><path style="opacity:0.522" fill="#878787" d="M 45.5,384.5 C 46.8333,384.5 48.1667,384.5 49.5,384.5C 47.4855,385.924 45.1522,386.59 42.5,386.5C 43.5,385.833 44.5,385.167 45.5,384.5 Z"/></g>
<g><path style="opacity:0.658" fill="#a5a5a5" d="M 402.5,385.5 C 410.167,385.5 417.833,385.5 425.5,385.5C 427.975,386.131 430.309,387.131 432.5,388.5C 422.322,387.94 412.322,386.94 402.5,385.5 Z"/></g>
<g><path style="opacity:0.035" fill="#2e2e2e" d="M 425.5,385.5 C 430.852,384.672 434.519,386.672 436.5,391.5C 436.167,391.5 435.833,391.5 435.5,391.5C 434.833,390.167 433.833,389.167 432.5,388.5C 430.309,387.131 427.975,386.131 425.5,385.5 Z"/></g>
<g><path style="opacity:0.039" fill="#242424" d="M 16.5,387.5 C 16.1667,388.167 15.8333,388.833 15.5,389.5C 13.5956,389.738 12.2623,390.738 11.5,392.5C 11.1667,392.5 10.8333,392.5 10.5,392.5C 11.2678,389.438 13.2678,387.772 16.5,387.5 Z"/></g>
<g><path style="opacity:0.047" fill="#4a4a4a" d="M 127.5,178.5 C 127.5,248.167 127.5,317.833 127.5,387.5C 128.108,394.733 125.108,399.899 118.5,403C 108.476,404.724 98.4755,404.891 88.5,403.5C 88.5,403.167 88.5,402.833 88.5,402.5C 98.1724,402.666 107.839,402.5 117.5,402C 118.056,401.617 118.389,401.117 118.5,400.5C 120.349,399.407 122.016,398.074 123.5,396.5C 125.213,395.365 125.88,393.698 125.5,391.5C 126.167,320.5 126.833,249.5 127.5,178.5 Z"/></g>
<g><path style="opacity:1" fill="#848484" d="M 381.5,389.5 C 385.31,390.754 385.31,391.754 381.5,392.5C 381.5,391.5 381.5,390.5 381.5,389.5 Z"/></g>
<g><path style="opacity:1" fill="#8a8a8a" d="M 32.5,392.5 C 34.4646,392.948 34.7979,393.948 33.5,395.5C 32.6143,394.675 32.281,393.675 32.5,392.5 Z"/></g>
<g><path style="opacity:0.318" fill="#8e8e8e" d="M 125.5,391.5 C 125.88,393.698 125.213,395.365 123.5,396.5C 123.796,394.597 124.463,392.93 125.5,391.5 Z"/></g>
<g><path style="opacity:0.58" fill="#969696" d="M 323.5,398.5 C 325.027,398.427 326.027,399.094 326.5,400.5C 324.973,400.573 323.973,399.906 323.5,398.5 Z"/></g>
<g><path style="opacity:0.031" fill="#232323" d="M 317.5,389.5 C 317.833,389.5 318.167,389.5 318.5,389.5C 318.889,393.284 320.556,396.284 323.5,398.5C 323.973,399.906 324.973,400.573 326.5,400.5C 326.833,401.167 327.167,401.833 327.5,402.5C 321.18,400.508 317.846,396.174 317.5,389.5 Z"/></g>
<g><path style="opacity:0.435" fill="#a8a8a8" d="M 15.5,389.5 C 12.7688,392.927 11.7688,396.927 12.5,401.5C 47.8765,401.82 83.2099,401.487 118.5,400.5C 118.389,401.117 118.056,401.617 117.5,402C 107.839,402.5 98.1724,402.666 88.5,402.5C 62.8333,402.5 37.1667,402.5 11.5,402.5C 11.5,399.167 11.5,395.833 11.5,392.5C 12.2623,390.738 13.5956,389.738 15.5,389.5 Z"/></g>
<g><path style="opacity:0.467" fill="#989898" d="M 435.5,391.5 C 435.833,391.5 436.167,391.5 436.5,391.5C 437.609,393.586 438.276,395.92 438.5,398.5C 438.66,400.355 437.993,401.688 436.5,402.5C 400.167,402.5 363.833,402.5 327.5,402.5C 327.167,401.833 326.833,401.167 326.5,400.5C 362.79,401.487 399.124,401.82 435.5,401.5C 435.5,398.167 435.5,394.833 435.5,391.5 Z"/></g>
<g><path style="opacity:0.142" fill="#3c3c3c" d="M 10.5,392.5 C 10.8333,392.5 11.1667,392.5 11.5,392.5C 11.5,395.833 11.5,399.167 11.5,402.5C 37.1667,402.5 62.8333,402.5 88.5,402.5C 88.5,402.833 88.5,403.167 88.5,403.5C 63.4904,403.56 38.4904,403.726 13.5,404C 12.2341,403.691 11.0674,403.191 10,402.5C 9.1925,398.973 9.35916,395.64 10.5,392.5 Z"/></g>
<g><path style="opacity:0.01" fill="#242424" d="M 327.5,402.5 C 363.833,402.5 400.167,402.5 436.5,402.5C 402.001,403.641 367.334,404.141 332.5,404C 330.618,403.802 328.952,403.302 327.5,402.5 Z"/></g>
</svg>
