<?xml version="1.0" encoding="UTF-8"?>
<!DOCTYPE svg PUBLIC "-//W3C//DTD SVG 1.1//EN" "http://www.w3.org/Graphics/SVG/1.1/DTD/svg11.dtd">
<svg xmlns="http://www.w3.org/2000/svg" version="1.1" width="500px" height="166px" style="shape-rendering:geometricPrecision; text-rendering:geometricPrecision; image-rendering:optimizeQuality; fill-rule:evenodd; clip-rule:evenodd" xmlns:xlink="http://www.w3.org/1999/xlink">
<g><path style="opacity:0.979" fill="#fff" d="M 111.5,102.5 C 112.733,104.796 114.733,106.13 117.5,106.5C 121.46,108.138 125.126,110.138 128.5,112.5C 131.088,114.625 134.088,115.958 137.5,116.5C 173.395,131.809 210.728,140.476 249.5,142.5C 256.5,143.833 263.5,143.833 270.5,142.5C 278.655,141.467 286.988,140.8 295.5,140.5C 300.414,140.638 305.081,139.972 309.5,138.5C 318.691,136.394 328.024,134.394 337.5,132.5C 340.067,132.279 342.401,131.612 344.5,130.5C 357.326,125.598 370.326,120.931 383.5,116.5C 386.485,115.674 389.151,114.341 391.5,112.5C 393.03,110.654 395.03,109.654 397.5,109.5C 399.819,109.008 401.819,108.008 403.5,106.5C 421.447,96.1793 438.447,84.3459 454.5,71C 459.703,65.9646 464.703,60.798 469.5,55.5C 471.705,55.1541 471.872,54.4874 470,53.5C 463.69,55.1168 457.523,56.7835 451.5,58.5C 436.924,63.539 421.924,64.7057 406.5,62C 400.22,60.7165 396.22,57.0498 394.5,51C 394.834,48.8255 395.834,46.9921 397.5,45.5C 414.894,54.9484 432.894,56.1151 451.5,49C 463.906,45.1978 476.24,41.1978 488.5,37C 496.28,35.4469 499.447,38.6136 498,46.5C 491.907,60.3551 483.573,72.6884 473,83.5C 465.582,95.3345 458.415,107.335 451.5,119.5C 449.364,122.072 446.697,123.239 443.5,123C 441.619,114.61 443.119,106.777 448,99.5C 453.773,92.2478 459.273,84.9144 464.5,77.5C 467.25,76.2967 468.75,74.2967 469,71.5C 466.96,73.3702 465.127,75.3702 463.5,77.5C 461.973,77.427 460.973,78.0937 460.5,79.5C 460.167,80.5 459.5,81.1667 458.5,81.5C 456.596,81.7376 455.262,82.7376 454.5,84.5C 452.973,84.427 451.973,85.0937 451.5,86.5C 449.14,88.8532 446.473,90.8532 443.5,92.5C 441.973,92.427 440.973,93.0937 440.5,94.5C 373.109,141.181 298.442,159.681 216.5,150C 126.984,135.856 55.8172,92.3557 3,19.5C 1.47216,15.1094 1.47216,10.7761 3,6.5C 6.79118,5.55252 9.79118,6.88586 12,10.5C 14.5877,14.674 16.921,19.0074 19,23.5C 44.8799,55.8239 75.7133,82.1572 111.5,102.5 Z"/></g>
<g><path style="opacity:0.424" fill="#fff" d="M 469.5,55.5 C 463.546,56.7573 457.546,57.7573 451.5,58.5C 457.523,56.7835 463.69,55.1168 470,53.5C 471.872,54.4874 471.705,55.1541 469.5,55.5 Z"/></g>
<g><path style="opacity:0.008" fill="#fff" d="M 464.5,77.5 C 464.167,77.5 463.833,77.5 463.5,77.5C 465.127,75.3702 466.96,73.3702 469,71.5C 468.75,74.2967 467.25,76.2967 464.5,77.5 Z"/></g>
<g><path style="opacity:0.016" fill="#fff" d="M 463.5,77.5 C 463.027,78.9063 462.027,79.573 460.5,79.5C 460.973,78.0937 461.973,77.427 463.5,77.5 Z"/></g>
<g><path style="opacity:0.004" fill="#fff" d="M 458.5,81.5 C 457.738,83.2624 456.404,84.2624 454.5,84.5C 455.262,82.7376 456.596,81.7376 458.5,81.5 Z"/></g>
<g><path style="opacity:0.008" fill="#fff" d="M 454.5,84.5 C 454.027,85.9063 453.027,86.573 451.5,86.5C 451.973,85.0937 452.973,84.427 454.5,84.5 Z"/></g>
<g><path style="opacity:0.004" fill="#fff" d="M 443.5,92.5 C 443.027,93.9063 442.027,94.573 440.5,94.5C 440.973,93.0937 441.973,92.427 443.5,92.5 Z"/></g>
<g><path style="opacity:0.496" fill="#fff" d="M 111.5,102.5 C 113.882,103.351 115.882,104.684 117.5,106.5C 114.733,106.13 112.733,104.796 111.5,102.5 Z"/></g>
<g><path style="opacity:0.502" fill="#fff" d="M 403.5,106.5 C 401.819,108.008 399.819,109.008 397.5,109.5C 398.911,107.461 400.911,106.461 403.5,106.5 Z"/></g>
<g><path style="opacity:0.5" fill="#fff" d="M 391.5,112.5 C 389.151,114.341 386.485,115.674 383.5,116.5C 385.579,114.127 388.246,112.794 391.5,112.5 Z"/></g>
<g><path style="opacity:0.522" fill="#fff" d="M 128.5,112.5 C 131.912,113.042 134.912,114.375 137.5,116.5C 134.088,115.958 131.088,114.625 128.5,112.5 Z"/></g>
<g><path style="opacity:0.494" fill="#fff" d="M 344.5,130.5 C 342.401,131.612 340.067,132.279 337.5,132.5C 339.438,130.837 341.772,130.171 344.5,130.5 Z"/></g>
<g><path style="opacity:0.499" fill="#fff" d="M 309.5,138.5 C 305.081,139.972 300.414,140.638 295.5,140.5C 299.943,139.199 304.609,138.532 309.5,138.5 Z"/></g>
<g><path style="opacity:0.486" fill="#fff" d="M 270.5,142.5 C 263.5,143.833 256.5,143.833 249.5,142.5C 256.32,142.369 263.32,142.369 270.5,142.5 Z"/></g>
</svg>
